<?xml version="1.0" encoding="UTF-8" standalone="no"?>
<svg
   xmlns:dc="http://purl.org/dc/elements/1.1/"
   xmlns:cc="http://creativecommons.org/ns#"
   xmlns:rdf="http://www.w3.org/1999/02/22-rdf-syntax-ns#"
   xmlns:svg="http://www.w3.org/2000/svg"
   xmlns="http://www.w3.org/2000/svg"
   xmlns:sodipodi="http://sodipodi.sourceforge.net/DTD/sodipodi-0.dtd"
   xmlns:inkscape="http://www.inkscape.org/namespaces/inkscape"
   version="1.1"
   id="svg2"
   xml:space="preserve"
   width="374.61066"
   height="183.91068"
   viewBox="0 0 374.61066 183.91068"
   sodipodi:docname="Logo PAPI-h-CMJN.ai"><metadata
     id="metadata8"><rdf:RDF><cc:Work
         rdf:about=""><dc:format>image/svg+xml</dc:format><dc:type
           rdf:resource="http://purl.org/dc/dcmitype/StillImage" /></cc:Work></rdf:RDF></metadata><defs
     id="defs6"><clipPath
       clipPathUnits="userSpaceOnUse"
       id="clipPath18"><path
         d="M 0,137.933 H 280.958 V 0 H 0 Z"
         id="path16" /></clipPath></defs><sodipodi:namedview
     pagecolor="#ffffff"
     bordercolor="#666666"
     borderopacity="1"
     objecttolerance="10"
     gridtolerance="10"
     guidetolerance="10"
     inkscape:pageopacity="0"
     inkscape:pageshadow="2"
     inkscape:window-width="640"
     inkscape:window-height="480"
     id="namedview4" /><g
     id="g10"
     inkscape:groupmode="layer"
     inkscape:label="Logo PAPI-h-CMJN"
     transform="matrix(1.3333333,0,0,-1.3333333,0,183.91067)"><g
       id="g12"><g
         id="g14"
         clip-path="url(#clipPath18)"><g
           id="g20"
           transform="translate(162.1846,103.2222)"><path
             d="m 0,0 c 4.252,0 6.665,2.758 6.665,7.01 0,4.194 -2.413,6.895 -6.549,6.895 H -6.032 V 0 Z m -13.56,13.905 h -3.735 v 6.378 H 1.38 c 7.641,0 12.984,-5.344 12.984,-13.273 0,-7.929 -5.343,-13.445 -12.984,-13.445 h -7.412 v -14.077 h -7.528 z"
             style="fill:#ffffff;fill-opacity:1;fill-rule:nonzero;stroke:none"
             id="path22" /></g><g
           id="g24"
           transform="translate(198.9619,99.3726)"><path
             d="m 0,0 -3.505,10.228 c -0.747,2.241 -1.609,6.09 -1.609,6.09 h -0.115 c 0,0 -0.862,-3.849 -1.609,-6.09 L -10.343,0 Z m -23.902,-10.285 h 0.92 c 0.975,0 1.435,0.23 1.78,1.264 l 12.123,33.153 h 7.871 L 10.858,-9.021 c 0.346,-1.034 0.806,-1.264 1.782,-1.264 h 0.92 v -6.377 H 9.078 c -2.873,0 -3.907,0.746 -4.827,3.332 l -2.528,7.125 h -13.79 l -2.527,-7.125 c -0.92,-2.586 -1.897,-3.332 -4.769,-3.332 h -4.539 z"
             style="fill:#ffffff;fill-opacity:1;fill-rule:nonzero;stroke:none"
             id="path26" /></g><g
           id="g28"
           transform="translate(232.4063,103.2222)"><path
             d="m 0,0 c 4.251,0 6.665,2.758 6.665,7.01 0,4.194 -2.414,6.895 -6.551,6.895 H -6.034 V 0 Z m -13.561,13.905 h -3.735 v 6.378 H 1.379 c 7.641,0 12.985,-5.344 12.985,-13.273 0,-7.929 -5.344,-13.445 -12.985,-13.445 h -7.413 v -14.077 h -7.527 z"
             style="fill:#ffffff;fill-opacity:1;fill-rule:nonzero;stroke:none"
             id="path30" /></g><g
           id="g32"
           transform="translate(250.1075,89.088)"><path
             d="M 0,0 H 4.078 V 28.04 H 0 v 6.377 H 15.282 V 28.04 H 11.204 V 0 h 4.078 V -6.377 H 0 Z"
             style="fill:#ffffff;fill-opacity:1;fill-rule:nonzero;stroke:none"
             id="path34" /></g><g
           id="g36"
           transform="translate(153.2666,61.8394)"><path
             d="M 0,0 C 2.97,0 4.867,1.753 4.867,5.052 4.867,8.31 2.929,10.063 0,10.063 H -2.186 V 0 Z m -4.846,12.352 h 4.991 c 4.515,0 7.464,-2.681 7.464,-7.3 0,-4.619 -2.949,-7.341 -7.464,-7.341 h -4.991 z"
             style="fill:#ffffff;fill-opacity:1;fill-rule:nonzero;stroke:none"
             id="path38" /></g><g
           id="g40"
           transform="translate(169.8711,66.108)"><path
             d="M 0,0 C -0.041,1.423 -0.928,2.186 -2.082,2.186 -3.423,2.186 -4.351,1.36 -4.598,0 Z M -2.021,4.207 C 1.011,4.207 2.64,2 2.64,-0.783 2.64,-1.093 2.578,-1.794 2.578,-1.794 H -4.68 c 0.164,-1.836 1.587,-2.784 3.155,-2.784 1.69,0 3.031,1.155 3.031,1.155 L 2.516,-5.3 c 0,0 -1.608,-1.505 -4.227,-1.505 -3.485,0 -5.649,2.516 -5.649,5.506 0,3.237 2.205,5.506 5.339,5.506"
             style="fill:#ffffff;fill-opacity:1;fill-rule:nonzero;stroke:none"
             id="path42" /></g><g
           id="g44"
           transform="translate(174.5352,74.191)"><path
             d="m 0,0 h 2.598 v -10.97 c 0,-1.155 0.391,-1.444 1.073,-1.444 0.206,0 0.391,0.02 0.391,0.02 v -2.288 c 0,0 -0.391,-0.061 -0.825,-0.061 -1.443,0 -3.237,0.37 -3.237,3.381 z"
             style="fill:#ffffff;fill-opacity:1;fill-rule:nonzero;stroke:none"
             id="path46" /></g><g
           id="g48"
           transform="translate(180.9307,67.8199)"><path
             d="m 0,0 h -1.362 v 2.083 h 1.424 v 3.03 H 2.618 V 2.083 H 5.01 V 0 H 2.618 v -4.084 c 0,-1.731 1.361,-1.979 2.082,-1.979 0.289,0 0.476,0.041 0.476,0.041 v -2.289 c 0,0 -0.311,-0.061 -0.806,-0.061 -1.463,0 -4.37,0.433 -4.37,3.959 z"
             style="fill:#ffffff;fill-opacity:1;fill-rule:nonzero;stroke:none"
             id="path50" /></g><g
           id="g52"
           transform="translate(191.5928,61.3443)"><path
             d="M 0,0 C 1.382,0 2.372,1.484 2.372,2.764 V 3.011 H 1.919 C 0.577,3.011 -1.587,2.825 -1.587,1.361 -1.587,0.66 -1.071,0 0,0 m 2.001,4.805 h 0.351 v 0.144 c 0,1.381 -0.867,1.856 -2.022,1.856 -1.505,0 -2.887,-1.011 -2.887,-1.011 l -0.989,1.877 c 0,0 1.628,1.299 4.123,1.299 2.764,0 4.372,-1.526 4.372,-4.186 V -1.794 H 2.537 v 0.866 c 0,0.412 0.041,0.742 0.041,0.742 H 2.537 c 0.021,0 -0.804,-1.855 -3.196,-1.855 -1.877,0 -3.568,1.175 -3.568,3.278 0,3.341 4.516,3.568 6.228,3.568"
             style="fill:#ffffff;fill-opacity:1;fill-rule:nonzero;stroke:none"
             id="path54" /></g><g
           id="g56"
           transform="translate(208.8164,61.5093)"><path
             d="m 0,0 c 1.361,0 2.639,0.989 2.639,3.32 0,1.629 -0.866,3.238 -2.618,3.238 -1.443,0 -2.64,-1.176 -2.64,-3.258 C -2.619,1.299 -1.546,0 0,0 m -0.495,8.805 c 2.309,0 3.031,-1.34 3.031,-1.34 h 0.041 c 0,0 -0.02,0.268 -0.02,0.598 v 4.619 H 5.176 V -1.959 H 2.701 v 0.866 c 0,0.392 0.041,0.681 0.041,0.681 H 2.701 c 0,0 -0.887,-1.794 -3.299,-1.794 -2.845,0 -4.661,2.247 -4.661,5.506 0,3.34 1.981,5.505 4.764,5.505"
             style="fill:#ffffff;fill-opacity:1;fill-rule:nonzero;stroke:none"
             id="path58" /></g><g
           id="g60"
           transform="translate(223.503,66.108)"><path
             d="M 0,0 C -0.042,1.423 -0.928,2.186 -2.081,2.186 -3.423,2.186 -4.35,1.36 -4.598,0 Z m -2.02,4.207 c 3.032,0 4.659,-2.207 4.659,-4.99 0,-0.31 -0.062,-1.011 -0.062,-1.011 H -4.68 c 0.165,-1.836 1.587,-2.784 3.155,-2.784 1.689,0 3.031,1.155 3.031,1.155 L 2.516,-5.3 c 0,0 -1.608,-1.505 -4.227,-1.505 -3.486,0 -5.649,2.516 -5.649,5.506 0,3.237 2.205,5.506 5.34,5.506"
             style="fill:#ffffff;fill-opacity:1;fill-rule:nonzero;stroke:none"
             id="path62" /></g><g
           id="g64"
           transform="translate(233.1778,74.191)"><path
             d="m 0,0 h 2.599 v -10.97 c 0,-1.155 0.391,-1.444 1.073,-1.444 0.206,0 0.391,0.02 0.391,0.02 v -2.288 c 0,0 -0.391,-0.061 -0.826,-0.061 -1.442,0 -3.237,0.37 -3.237,3.381 z"
             style="fill:#ffffff;fill-opacity:1;fill-rule:nonzero;stroke:none"
             id="path66" /></g><g
           id="g68"
           transform="translate(239.6153,74.439)"><path
             d="M 0,0 H 2.412 L 0.886,-4.516 h -1.855 z"
             style="fill:#ffffff;fill-opacity:1;fill-rule:nonzero;stroke:none"
             id="path70" /></g><g
           id="g72"
           transform="translate(249.0596,71.6548)"><path
             d="M 0,0 C 0,0 -0.329,-1.443 -0.618,-2.268 L -1.916,-6.187 H 1.919 L 0.618,-2.268 C 0.351,-1.443 0.041,0 0.041,0 Z m 2.578,-8.352 h -5.135 l -1.236,-3.752 h -2.742 l 5.155,14.64 h 2.783 l 5.156,-14.64 H 3.816 Z"
             style="fill:#ffffff;fill-opacity:1;fill-rule:nonzero;stroke:none"
             id="path74" /></g><g
           id="g76"
           transform="translate(260.4268,61.3443)"><path
             d="M 0,0 C 1.381,0 2.37,1.484 2.37,2.764 V 3.011 H 1.917 c -1.34,0 -3.505,-0.186 -3.505,-1.65 C -1.588,0.66 -1.073,0 0,0 M 1.999,4.805 H 2.35 v 0.144 c 0,1.381 -0.867,1.856 -2.02,1.856 -1.506,0 -2.887,-1.011 -2.887,-1.011 l -0.991,1.877 c 0,0 1.63,1.299 4.125,1.299 2.763,0 4.37,-1.526 4.37,-4.186 v -6.578 h -2.41 v 0.866 c 0,0.412 0.041,0.742 0.041,0.742 H 2.537 c 0.021,0 -0.806,-1.855 -3.198,-1.855 -1.875,0 -3.567,1.175 -3.567,3.278 0,3.341 4.517,3.568 6.227,3.568"
             style="fill:#ffffff;fill-opacity:1;fill-rule:nonzero;stroke:none"
             id="path78" /></g><g
           id="g80"
           transform="translate(151.4307,47.3267)"><path
             d="m 0,0 c 1.312,0 2.172,0.702 2.172,1.742 v 0.023 c 0,1.131 -0.849,1.719 -2.127,1.719 H -1.957 V 0 Z M -2.852,4.311 H 0.113 C 1.9,4.311 3.077,3.36 3.077,1.799 V 1.776 c 0,-1.708 -1.426,-2.589 -3.111,-2.589 h -1.923 v -2.795 h -0.895 z"
             style="fill:#ffffff;fill-opacity:1;fill-rule:nonzero;stroke:none"
             id="path82" /></g><g
           id="g84"
           transform="translate(155.8565,49.567)"><path
             d="M 0,0 H 0.871 V -1.527 C 1.302,-0.555 2.15,0.147 3.259,0.102 V -0.837 H 3.191 c -1.279,0 -2.32,-0.916 -2.32,-2.682 v -2.33 H 0 Z"
             style="fill:#ffffff;fill-opacity:1;fill-rule:nonzero;stroke:none"
             id="path86" /></g><g
           id="g88"
           transform="translate(164.8975,46.6148)"><path
             d="m 0,0 v 0.022 c 0,1.256 -0.939,2.286 -2.172,2.286 -1.266,0 -2.138,-1.03 -2.138,-2.263 V 0.022 c 0,-1.255 0.928,-2.274 2.161,-2.274 C -0.882,-2.252 0,-1.233 0,0 m -5.204,0 v 0.022 c 0,1.652 1.29,3.055 3.055,3.055 1.753,0 3.044,-1.381 3.044,-3.032 V 0.022 c 0,-1.652 -1.302,-3.054 -3.067,-3.054 -1.753,0 -3.032,1.38 -3.032,3.032"
             style="fill:#ffffff;fill-opacity:1;fill-rule:nonzero;stroke:none"
             id="path90" /></g><g
           id="g92"
           transform="translate(171.96,46.9195)"><path
             d="m 0,0 v 0.023 c 0,1.199 -1.04,1.98 -2.149,1.98 -1.11,0 -2.026,-0.77 -2.026,-1.969 V 0.012 c 0,-1.177 0.939,-1.991 2.026,-1.991 C -1.04,-1.979 0,-1.176 0,0 m -4.797,-4.22 0.396,0.679 c 0.668,-0.485 1.414,-0.746 2.252,-0.746 1.29,0 2.126,0.713 2.126,2.082 v 0.689 c -0.509,-0.678 -1.222,-1.233 -2.296,-1.233 -1.403,0 -2.749,1.053 -2.749,2.738 v 0.023 c 0,1.708 1.357,2.76 2.749,2.76 1.096,0 1.81,-0.543 2.285,-1.176 v 1.051 h 0.871 v -4.83 c 0,-0.905 -0.272,-1.595 -0.746,-2.071 -0.521,-0.519 -1.302,-0.78 -2.23,-0.78 -0.971,0 -1.878,0.271 -2.658,0.814"
             style="fill:#ffffff;fill-opacity:1;fill-rule:nonzero;stroke:none"
             id="path94" /></g><g
           id="g96"
           transform="translate(174.6094,49.567)"><path
             d="M 0,0 H 0.871 V -1.527 C 1.302,-0.555 2.15,0.147 3.258,0.102 V -0.837 H 3.19 c -1.277,0 -2.319,-0.916 -2.319,-2.682 v -2.33 H 0 Z"
             style="fill:#ffffff;fill-opacity:1;fill-rule:nonzero;stroke:none"
             id="path98" /></g><g
           id="g100"
           transform="translate(182.6328,45.8677)"><path
             d="m 0,0 v 0.543 c -0.431,0.125 -0.996,0.249 -1.708,0.249 -1.087,0 -1.709,-0.476 -1.709,-1.177 v -0.022 c 0,-0.736 0.679,-1.165 1.471,-1.165 C -0.871,-1.572 0,-0.928 0,0 m -4.299,-0.453 v 0.023 c 0,1.256 1.018,1.912 2.5,1.912 0.746,0 1.268,-0.102 1.788,-0.249 v 0.181 c 0,1.041 -0.635,1.584 -1.731,1.584 -0.691,0 -1.234,-0.17 -1.777,-0.419 l -0.259,0.713 c 0.644,0.294 1.266,0.498 2.126,0.498 0.826,0 1.47,-0.227 1.889,-0.645 0.408,-0.408 0.611,-0.973 0.611,-1.72 v -3.574 h -0.859 v 0.871 c -0.408,-0.521 -1.075,-0.996 -2.104,-0.996 -1.098,0 -2.184,0.623 -2.184,1.821"
             style="fill:#ffffff;fill-opacity:1;fill-rule:nonzero;stroke:none"
             id="path102" /></g><g
           id="g104"
           transform="translate(185.1924,49.567)"><path
             d="m 0,0 h 0.871 v -0.984 c 0.384,0.577 0.904,1.109 1.889,1.109 0.951,0 1.561,-0.51 1.878,-1.166 0.418,0.645 1.041,1.166 2.058,1.166 1.348,0 2.173,-0.905 2.173,-2.354 v -3.62 H 7.998 v 3.416 c 0,1.132 -0.566,1.766 -1.517,1.766 -0.882,0 -1.617,-0.656 -1.617,-1.811 V -5.849 H 4.005 v 3.439 c 0,1.098 -0.577,1.743 -1.505,1.743 -0.929,0 -1.629,-0.77 -1.629,-1.845 V -5.849 H 0 Z"
             style="fill:#ffffff;fill-opacity:1;fill-rule:nonzero;stroke:none"
             id="path106" /></g><g
           id="g108"
           transform="translate(195.8194,49.567)"><path
             d="m 0,0 h 0.871 v -0.984 c 0.384,0.577 0.904,1.109 1.889,1.109 0.951,0 1.561,-0.51 1.878,-1.166 0.418,0.645 1.041,1.166 2.059,1.166 1.347,0 2.172,-0.905 2.172,-2.354 v -3.62 H 7.998 v 3.416 c 0,1.132 -0.566,1.766 -1.517,1.766 -0.882,0 -1.616,-0.656 -1.616,-1.811 v -3.371 h -0.86 v 3.439 c 0,1.098 -0.577,1.743 -1.505,1.743 -0.929,0 -1.629,-0.77 -1.629,-1.845 V -5.849 H 0 Z"
             style="fill:#ffffff;fill-opacity:1;fill-rule:nonzero;stroke:none"
             id="path110" /></g><g
           id="g112"
           transform="translate(210.7344,46.9879)"><path
             d="m 0,0 c -0.104,1.063 -0.714,1.968 -1.868,1.968 -1.006,0 -1.776,-0.837 -1.9,-1.968 z m -1.709,-2.647 c 0.803,0 1.369,0.328 1.844,0.826 l 0.543,-0.487 c -0.588,-0.656 -1.301,-1.097 -2.409,-1.097 -1.607,0 -2.919,1.233 -2.919,3.054 0,1.698 1.188,3.055 2.804,3.055 1.732,0 2.728,-1.381 2.728,-3.1 0,-0.079 0,-0.17 -0.011,-0.306 h -4.639 c 0.124,-1.233 1.029,-1.945 2.059,-1.945"
             style="fill:#ffffff;fill-opacity:1;fill-rule:nonzero;stroke:none"
             id="path114" /></g><g
           id="g116"
           transform="translate(220.9971,46.6373)"><path
             d="m 0,0 v 0.022 c 0,1.346 -1.029,2.251 -2.115,2.251 -1.131,0 -2.059,-0.836 -2.059,-2.251 V 0 c 0,-1.381 0.95,-2.263 2.059,-2.263 C -1.029,-2.263 0,-1.347 0,0 m -5.068,-0.012 v 0.023 c 0,1.912 1.391,3.044 2.795,3.044 1.086,0 1.787,-0.589 2.239,-1.245 v 3.53 h 0.871 v -8.259 h -0.871 v 1.177 c -0.475,-0.701 -1.165,-1.302 -2.239,-1.302 -1.404,0 -2.795,1.109 -2.795,3.032"
             style="fill:#ffffff;fill-opacity:1;fill-rule:nonzero;stroke:none"
             id="path118" /></g><g
           id="g120"
           transform="translate(223.252,49.4654)"><path
             d="M 0,0 C 0.565,0.203 0.804,0.497 0.758,0.984 H 0.35 V 2.172 H 1.392 V 1.153 c 0,-0.916 -0.397,-1.356 -1.256,-1.549 z"
             style="fill:#ffffff;fill-opacity:1;fill-rule:nonzero;stroke:none"
             id="path122" /></g><g
           id="g124"
           transform="translate(230.4356,46.6148)"><path
             d="M 0,0 -1.798,4.038 -3.608,0 Z m -2.206,5.079 h 0.838 L 2.24,-2.896 H 1.278 l -0.926,2.092 h -4.311 l -0.939,-2.092 h -0.916 z"
             style="fill:#ffffff;fill-opacity:1;fill-rule:nonzero;stroke:none"
             id="path126" /></g><g
           id="g128"
           transform="translate(233.3135,46.6148)"><path
             d="m 0,0 v 0.022 c 0,1.652 1.289,3.055 2.998,3.055 1.108,0 1.798,-0.464 2.341,-1.041 L 4.763,1.425 C 4.299,1.911 3.778,2.308 2.986,2.308 1.799,2.308 0.894,1.301 0.894,0.045 V 0.022 c 0,-1.267 0.927,-2.274 2.149,-2.274 0.746,0 1.323,0.374 1.788,0.871 L 5.385,-1.9 C 4.796,-2.557 4.095,-3.032 2.998,-3.032 1.289,-3.032 0,-1.641 0,0"
             style="fill:#ffffff;fill-opacity:1;fill-rule:nonzero;stroke:none"
             id="path130" /></g><g
           id="g132"
           transform="translate(240.3067,45.2681)"><path
             d="m 0,0 v 3.529 h -0.814 v 0.77 H 0 V 6.063 H 0.871 V 4.299 H 2.727 V 3.529 H 0.871 V 0.113 c 0,-0.713 0.397,-0.972 0.984,-0.972 0.294,0 0.543,0.055 0.849,0.203 V -1.402 C 2.398,-1.562 2.07,-1.651 1.651,-1.651 0.713,-1.651 0,-1.187 0,0"
             style="fill:#ffffff;fill-opacity:1;fill-rule:nonzero;stroke:none"
             id="path134" /></g><path
           d="m 244.518,49.567 h 0.871 v -5.849 h -0.871 z m -0.057,2.24 h 0.996 v -0.962 h -0.996 z"
           style="fill:#ffffff;fill-opacity:1;fill-rule:nonzero;stroke:none"
           id="path136" /><g
           id="g138"
           transform="translate(252.1211,46.6148)"><path
             d="m 0,0 v 0.022 c 0,1.256 -0.938,2.286 -2.172,2.286 -1.267,0 -2.139,-1.03 -2.139,-2.263 V 0.022 c 0,-1.255 0.928,-2.274 2.162,-2.274 C -0.883,-2.252 0,-1.233 0,0 m -5.204,0 v 0.022 c 0,1.652 1.29,3.055 3.055,3.055 1.753,0 3.043,-1.381 3.043,-3.032 V 0.022 c 0,-1.652 -1.302,-3.054 -3.066,-3.054 -1.754,0 -3.032,1.38 -3.032,3.032"
             style="fill:#ffffff;fill-opacity:1;fill-rule:nonzero;stroke:none"
             id="path140" /></g><g
           id="g142"
           transform="translate(254.4551,49.567)"><path
             d="m 0,0 h 0.871 v -1.018 c 0.384,0.633 0.995,1.143 2.002,1.143 1.414,0 2.24,-0.951 2.24,-2.342 V -5.849 H 4.242 v 3.416 c 0,1.086 -0.589,1.766 -1.618,1.766 -1.007,0 -1.753,-0.736 -1.753,-1.833 V -5.849 H 0 Z"
             style="fill:#ffffff;fill-opacity:1;fill-rule:nonzero;stroke:none"
             id="path144" /></g><g
           id="g146"
           transform="translate(260.8037,44.4644)"><path
             d="m 0,0 0.441,0.623 c 0.634,-0.476 1.335,-0.747 2.025,-0.747 0.702,0 1.211,0.362 1.211,0.928 V 0.826 C 3.677,1.415 2.986,1.641 2.218,1.855 1.301,2.116 0.282,2.433 0.282,3.508 V 3.53 c 0,1.007 0.838,1.674 1.992,1.674 0.712,0 1.504,-0.248 2.105,-0.644 L 3.982,3.903 C 3.439,4.254 2.817,4.469 2.252,4.469 1.562,4.469 1.12,4.107 1.12,3.62 V 3.598 C 1.12,3.044 1.844,2.828 2.624,2.591 3.53,2.319 4.502,1.969 4.502,0.917 V 0.895 c 0,-1.11 -0.916,-1.754 -2.081,-1.754 C 1.584,-0.859 0.656,-0.531 0,0"
             style="fill:#ffffff;fill-opacity:1;fill-rule:nonzero;stroke:none"
             id="path148" /></g><g
           id="g150"
           transform="translate(153.1621,33.6041)"><path
             d="m 0,0 v 0.023 c 0,1.346 -1.03,2.251 -2.116,2.251 -1.132,0 -2.059,-0.837 -2.059,-2.251 V 0 c 0,-1.38 0.949,-2.262 2.059,-2.262 C -1.03,-2.262 0,-1.346 0,0 m -5.068,-0.011 v 0.023 c 0,1.912 1.391,3.044 2.794,3.044 1.085,0 1.788,-0.589 2.239,-1.245 V 5.34 h 0.871 v -8.258 h -0.871 v 1.176 c -0.474,-0.7 -1.165,-1.301 -2.239,-1.301 -1.403,0 -2.794,1.109 -2.794,3.032"
             style="fill:#ffffff;fill-opacity:1;fill-rule:nonzero;stroke:none"
             id="path152" /></g><g
           id="g154"
           transform="translate(160.0996,33.9556)"><path
             d="M 0,0 C -0.103,1.063 -0.713,1.968 -1.867,1.968 -2.874,1.968 -3.644,1.131 -3.768,0 Z m -1.709,-2.647 c 0.804,0 1.37,0.328 1.845,0.826 l 0.542,-0.488 c -0.588,-0.656 -1.3,-1.096 -2.409,-1.096 -1.607,0 -2.918,1.232 -2.918,3.053 0,1.698 1.187,3.056 2.804,3.056 1.732,0 2.727,-1.381 2.727,-3.1 0,-0.08 0,-0.17 -0.011,-0.306 h -4.639 c 0.124,-1.233 1.03,-1.945 2.059,-1.945"
             style="fill:#ffffff;fill-opacity:1;fill-rule:nonzero;stroke:none"
             id="path156" /></g><g
           id="g158"
           transform="translate(168.6328,34.2945)"><path
             d="m 0,0 c 1.312,0 2.173,0.702 2.173,1.742 v 0.023 c 0,1.131 -0.849,1.719 -2.128,1.719 H -1.956 V 0 Z M -2.851,4.311 H 0.113 C 1.9,4.311 3.077,3.36 3.077,1.799 V 1.776 c 0,-1.708 -1.426,-2.59 -3.111,-2.59 h -1.922 v -2.794 h -0.895 z"
             style="fill:#ffffff;fill-opacity:1;fill-rule:nonzero;stroke:none"
             id="path160" /></g><g
           id="g162"
           transform="translate(173.0586,36.5347)"><path
             d="M 0,0 H 0.871 V -1.527 C 1.302,-0.555 2.15,0.147 3.259,0.102 V -0.837 H 3.191 c -1.278,0 -2.32,-0.916 -2.32,-2.682 v -2.33 H 0 Z"
             style="fill:#ffffff;fill-opacity:1;fill-rule:nonzero;stroke:none"
             id="path164" /></g><g
           id="g166"
           transform="translate(180.4043,39.0572)"><path
             d="m 0,0 0.904,-0.418 -1.29,-1.223 h -0.678 z m 1.143,-5.102 c -0.104,1.064 -0.714,1.968 -1.869,1.968 -1.005,0 -1.775,-0.837 -1.899,-1.968 z m -1.709,-2.647 c 0.802,0 1.369,0.328 1.843,0.826 L 1.82,-7.41 c -0.588,-0.656 -1.3,-1.097 -2.409,-1.097 -1.607,0 -2.919,1.233 -2.919,3.054 0,1.697 1.189,3.056 2.805,3.056 1.731,0 2.727,-1.381 2.727,-3.101 0,-0.079 0,-0.17 -0.01,-0.306 h -4.639 c 0.124,-1.232 1.028,-1.945 2.059,-1.945"
             style="fill:#ffffff;fill-opacity:1;fill-rule:nonzero;stroke:none"
             id="path168" /></g><g
           id="g170"
           transform="translate(182.9629,36.5347)"><path
             d="M 0,0 H 0.961 L 2.93,-4.854 4.91,0 H 5.849 L 3.303,-5.895 h -0.77 z"
             style="fill:#ffffff;fill-opacity:1;fill-rule:nonzero;stroke:none"
             id="path172" /></g><g
           id="g174"
           transform="translate(193.9942,33.9556)"><path
             d="M 0,0 C -0.101,1.063 -0.711,1.968 -1.865,1.968 -2.873,1.968 -3.643,1.131 -3.767,0 Z m -1.708,-2.647 c 0.804,0 1.369,0.328 1.845,0.826 L 0.68,-2.309 c -0.588,-0.656 -1.301,-1.096 -2.41,-1.096 -1.606,0 -2.919,1.232 -2.919,3.053 0,1.698 1.188,3.056 2.806,3.056 1.731,0 2.726,-1.381 2.726,-3.1 0,-0.08 0,-0.17 -0.012,-0.306 h -4.638 c 0.124,-1.233 1.031,-1.945 2.059,-1.945"
             style="fill:#ffffff;fill-opacity:1;fill-rule:nonzero;stroke:none"
             id="path176" /></g><g
           id="g178"
           transform="translate(196.2705,36.5347)"><path
             d="m 0,0 h 0.871 v -1.019 c 0.386,0.634 0.997,1.144 2.003,1.144 1.414,0 2.24,-0.951 2.24,-2.343 V -5.849 H 4.243 v 3.416 c 0,1.086 -0.588,1.766 -1.617,1.766 -1.008,0 -1.755,-0.736 -1.755,-1.833 V -5.849 H 0 Z"
             style="fill:#ffffff;fill-opacity:1;fill-rule:nonzero;stroke:none"
             id="path180" /></g><g
           id="g182"
           transform="translate(203.4121,32.2359)"><path
             d="m 0,0 v 3.529 h -0.814 v 0.77 H 0 V 6.063 H 0.871 V 4.299 H 2.727 V 3.529 H 0.871 V 0.113 c 0,-0.713 0.397,-0.972 0.984,-0.972 0.295,0 0.544,0.055 0.849,0.203 V -1.403 C 2.399,-1.562 2.07,-1.651 1.651,-1.651 0.713,-1.651 0,-1.188 0,0"
             style="fill:#ffffff;fill-opacity:1;fill-rule:nonzero;stroke:none"
             id="path184" /></g><path
           d="m 207.623,36.535 h 0.871 v -5.849 h -0.871 z m -0.057,2.24 h 0.995 v -0.962 h -0.995 z"
           style="fill:#ffffff;fill-opacity:1;fill-rule:nonzero;stroke:none"
           id="path186" /><g
           id="g188"
           transform="translate(215.2256,33.5816)"><path
             d="m 0,0 v 0.022 c 0,1.257 -0.939,2.287 -2.172,2.287 -1.266,0 -2.138,-1.03 -2.138,-2.263 V 0.022 c 0,-1.254 0.928,-2.273 2.161,-2.273 C -0.883,-2.251 0,-1.232 0,0 m -5.204,0 v 0.022 c 0,1.653 1.29,3.056 3.055,3.056 1.753,0 3.043,-1.381 3.043,-3.032 V 0.022 c 0,-1.651 -1.301,-3.053 -3.066,-3.053 -1.754,0 -3.032,1.38 -3.032,3.031"
             style="fill:#ffffff;fill-opacity:1;fill-rule:nonzero;stroke:none"
             id="path190" /></g><g
           id="g192"
           transform="translate(217.5596,36.5347)"><path
             d="m 0,0 h 0.871 v -1.019 c 0.384,0.634 0.996,1.144 2.003,1.144 1.413,0 2.239,-0.951 2.239,-2.343 V -5.849 H 4.242 v 3.416 c 0,1.086 -0.588,1.766 -1.618,1.766 -1.007,0 -1.753,-0.736 -1.753,-1.833 V -5.849 H 0 Z"
             style="fill:#ffffff;fill-opacity:1;fill-rule:nonzero;stroke:none"
             id="path194" /></g><g
           id="g196"
           transform="translate(153.1621,20.5728)"><path
             d="m 0,0 v 0.022 c 0,1.346 -1.03,2.251 -2.116,2.251 -1.132,0 -2.059,-0.836 -2.059,-2.251 V 0 c 0,-1.381 0.949,-2.263 2.059,-2.263 C -1.03,-2.263 0,-1.347 0,0 m -5.068,-0.012 v 0.023 c 0,1.912 1.391,3.043 2.794,3.043 1.085,0 1.788,-0.588 2.239,-1.244 v 3.53 h 0.871 v -8.259 h -0.871 v 1.177 c -0.474,-0.702 -1.165,-1.302 -2.239,-1.302 -1.403,0 -2.794,1.109 -2.794,3.032"
             style="fill:#ffffff;fill-opacity:1;fill-rule:nonzero;stroke:none"
             id="path198" /></g><g
           id="g200"
           transform="translate(160.0996,20.9234)"><path
             d="M 0,0 C -0.103,1.063 -0.713,1.968 -1.867,1.968 -2.874,1.968 -3.644,1.131 -3.768,0 Z m -1.709,-2.648 c 0.804,0 1.37,0.33 1.845,0.827 l 0.542,-0.487 c -0.588,-0.657 -1.3,-1.098 -2.409,-1.098 -1.607,0 -2.918,1.234 -2.918,3.055 0,1.698 1.187,3.054 2.804,3.054 1.732,0 2.727,-1.38 2.727,-3.099 0,-0.079 0,-0.169 -0.011,-0.306 h -4.639 c 0.124,-1.233 1.03,-1.946 2.059,-1.946"
             style="fill:#ffffff;fill-opacity:1;fill-rule:nonzero;stroke:none"
             id="path202" /></g><g
           id="g204"
           transform="translate(161.8897,18.4)"><path
             d="m 0,0 0.44,0.622 c 0.634,-0.475 1.335,-0.747 2.026,-0.747 0.7,0 1.21,0.363 1.21,0.929 v 0.022 c 0,0.589 -0.69,0.815 -1.459,1.029 C 1.301,2.116 0.282,2.433 0.282,3.508 V 3.53 c 0,1.007 0.837,1.674 1.99,1.674 0.714,0 1.506,-0.248 2.106,-0.644 L 3.981,3.903 C 3.438,4.254 2.816,4.469 2.25,4.469 1.561,4.469 1.119,4.107 1.119,3.62 V 3.598 C 1.119,3.044 1.844,2.828 2.624,2.591 3.529,2.319 4.502,1.969 4.502,0.917 V 0.895 C 4.502,-0.215 3.586,-0.86 2.421,-0.86 1.583,-0.86 0.656,-0.532 0,0"
             style="fill:#ffffff;fill-opacity:1;fill-rule:nonzero;stroke:none"
             id="path206" /></g><path
           d="m 171.361,25.573 h 0.894 v -7.919 h -0.894 z"
           style="fill:#ffffff;fill-opacity:1;fill-rule:nonzero;stroke:none"
           id="path208" /><g
           id="g210"
           transform="translate(174.293,23.5025)"><path
             d="m 0,0 h 0.871 v -1.018 c 0.385,0.633 0.995,1.142 2.003,1.142 1.414,0 2.239,-0.95 2.239,-2.341 V -5.849 H 4.242 v 3.416 c 0,1.086 -0.588,1.766 -1.617,1.766 -1.007,0 -1.754,-0.736 -1.754,-1.833 V -5.849 H 0 Z"
             style="fill:#ffffff;fill-opacity:1;fill-rule:nonzero;stroke:none"
             id="path212" /></g><g
           id="g214"
           transform="translate(185.9707,20.5504)"><path
             d="m 0,0 v 0.022 c 0,1.256 -0.939,2.286 -2.173,2.286 -1.265,0 -2.137,-1.03 -2.137,-2.263 V 0.022 c 0,-1.255 0.927,-2.275 2.16,-2.275 1.267,0 2.15,1.02 2.15,2.253 m -5.204,0 v 0.022 c 0,1.652 1.289,3.054 3.054,3.054 1.754,0 3.045,-1.38 3.045,-3.031 V 0.022 c 0,-1.651 -1.303,-3.055 -3.068,-3.055 -1.753,0 -3.031,1.382 -3.031,3.033"
             style="fill:#ffffff;fill-opacity:1;fill-rule:nonzero;stroke:none"
             id="path216" /></g><g
           id="g218"
           transform="translate(188.3037,23.5025)"><path
             d="m 0,0 h 0.871 v -1.018 c 0.385,0.633 0.995,1.142 2.002,1.142 1.415,0 2.241,-0.95 2.241,-2.341 V -5.849 H 4.243 v 3.416 c 0,1.086 -0.589,1.766 -1.619,1.766 -1.006,0 -1.753,-0.736 -1.753,-1.833 V -5.849 H 0 Z"
             style="fill:#ffffff;fill-opacity:1;fill-rule:nonzero;stroke:none"
             id="path220" /></g><g
           id="g222"
           transform="translate(199.8682,20.5728)"><path
             d="m 0,0 v 0.022 c 0,1.346 -1.029,2.251 -2.116,2.251 -1.131,0 -2.059,-0.836 -2.059,-2.251 V 0 c 0,-1.381 0.95,-2.263 2.059,-2.263 C -1.029,-2.263 0,-1.347 0,0 m -5.068,-0.012 v 0.023 c 0,1.912 1.392,3.043 2.794,3.043 1.086,0 1.788,-0.588 2.24,-1.244 v 3.53 h 0.871 v -8.259 h -0.871 v 1.177 c -0.475,-0.702 -1.166,-1.302 -2.24,-1.302 -1.402,0 -2.794,1.109 -2.794,3.032"
             style="fill:#ffffff;fill-opacity:1;fill-rule:nonzero;stroke:none"
             id="path224" /></g><g
           id="g226"
           transform="translate(206.376,19.8033)"><path
             d="m 0,0 v 0.543 c -0.43,0.125 -0.995,0.249 -1.708,0.249 -1.086,0 -1.708,-0.476 -1.708,-1.177 v -0.022 c 0,-0.736 0.679,-1.166 1.471,-1.166 C -0.871,-1.573 0,-0.928 0,0 m -4.299,-0.453 v 0.023 c 0,1.256 1.018,1.912 2.5,1.912 0.747,0 1.267,-0.102 1.788,-0.249 v 0.181 c 0,1.041 -0.635,1.584 -1.731,1.584 -0.691,0 -1.234,-0.17 -1.777,-0.419 l -0.259,0.713 c 0.644,0.294 1.267,0.498 2.127,0.498 0.825,0 1.47,-0.227 1.888,-0.645 0.409,-0.407 0.611,-0.973 0.611,-1.72 v -3.574 h -0.859 v 0.871 c -0.408,-0.522 -1.075,-0.996 -2.105,-0.996 -1.098,0 -2.183,0.622 -2.183,1.821"
             style="fill:#ffffff;fill-opacity:1;fill-rule:nonzero;stroke:none"
             id="path228" /></g><g
           id="g230"
           transform="translate(209.1846,19.2037)"><path
             d="m 0,0 v 3.529 h -0.815 v 0.77 H 0 V 6.063 H 0.871 V 4.299 H 2.727 V 3.529 H 0.871 V 0.113 c 0,-0.712 0.396,-0.972 0.984,-0.972 0.294,0 0.543,0.055 0.849,0.203 V -1.403 C 2.398,-1.562 2.069,-1.652 1.65,-1.652 0.712,-1.652 0,-1.187 0,0"
             style="fill:#ffffff;fill-opacity:1;fill-rule:nonzero;stroke:none"
             id="path232" /></g><path
           d="m 213.395,23.503 h 0.871 v -5.849 h -0.871 z m -0.057,2.24 h 0.995 v -0.962 h -0.995 z"
           style="fill:#ffffff;fill-opacity:1;fill-rule:nonzero;stroke:none"
           id="path234" /><g
           id="g236"
           transform="translate(220.9981,20.5504)"><path
             d="m 0,0 v 0.022 c 0,1.256 -0.938,2.286 -2.172,2.286 -1.267,0 -2.139,-1.03 -2.139,-2.263 V 0.022 c 0,-1.255 0.929,-2.275 2.162,-2.275 C -0.883,-2.253 0,-1.233 0,0 m -5.204,0 v 0.022 c 0,1.652 1.29,3.054 3.055,3.054 1.753,0 3.043,-1.38 3.043,-3.031 V 0.022 c 0,-1.651 -1.301,-3.055 -3.066,-3.055 -1.754,0 -3.032,1.382 -3.032,3.033"
             style="fill:#ffffff;fill-opacity:1;fill-rule:nonzero;stroke:none"
             id="path238" /></g><g
           id="g240"
           transform="translate(223.3321,23.5025)"><path
             d="m 0,0 h 0.871 v -1.018 c 0.384,0.633 0.996,1.142 2.003,1.142 1.413,0 2.239,-0.95 2.239,-2.341 V -5.849 H 4.242 v 3.416 c 0,1.086 -0.588,1.766 -1.617,1.766 -1.007,0 -1.754,-0.736 -1.754,-1.833 V -5.849 H 0 Z"
             style="fill:#ffffff;fill-opacity:1;fill-rule:nonzero;stroke:none"
             id="path242" /></g><g
           id="g244"
           transform="translate(229.6807,18.4)"><path
             d="m 0,0 0.441,0.622 c 0.634,-0.475 1.336,-0.747 2.025,-0.747 0.702,0 1.212,0.363 1.212,0.929 v 0.022 c 0,0.589 -0.691,0.815 -1.46,1.029 C 1.301,2.116 0.283,2.433 0.283,3.508 V 3.53 c 0,1.007 0.837,1.674 1.991,1.674 0.713,0 1.504,-0.248 2.105,-0.644 L 3.982,3.903 C 3.439,4.254 2.817,4.469 2.252,4.469 1.562,4.469 1.12,4.107 1.12,3.62 V 3.598 C 1.12,3.044 1.845,2.828 2.625,2.591 3.53,2.319 4.503,1.969 4.503,0.917 V 0.895 C 4.503,-0.215 3.587,-0.86 2.421,-0.86 1.584,-0.86 0.656,-0.532 0,0"
             style="fill:#ffffff;fill-opacity:1;fill-rule:nonzero;stroke:none"
             id="path246" /></g><g
           id="g248"
           transform="translate(140.0777,110.8585)"><path
             d="m 0,0 c -0.122,0.688 -0.504,1.287 -1.078,1.687 -0.571,0.398 -1.265,0.551 -1.944,0.428 -21.685,-3.83 -41.558,-10.097 -59.066,-18.627 -17.444,-8.5 -31.606,-18.786 -42.091,-30.574 -0.463,-0.52 -0.696,-1.19 -0.655,-1.886 0.041,-0.696 0.35,-1.334 0.87,-1.797 0.478,-0.426 1.093,-0.66 1.733,-0.66 0.744,0 1.455,0.319 1.95,0.875 20.249,22.764 56.03,40.089 98.167,47.531 0.685,0.122 1.283,0.502 1.683,1.073 C -0.032,-1.378 0.122,-0.687 0,0"
             style="fill:#ffffff;fill-opacity:1;fill-rule:nonzero;stroke:none"
             id="path250" /></g><g
           id="g252"
           transform="translate(140.0381,82.0005)"><path
             d="M 0,0 C -0.17,0.676 -0.593,1.245 -1.193,1.603 -1.791,1.96 -2.494,2.062 -3.167,1.892 -21.824,-2.812 -38.747,-9.4 -53.465,-17.689 c -0.607,-0.342 -1.044,-0.9 -1.233,-1.571 -0.187,-0.672 -0.102,-1.376 0.24,-1.982 0.462,-0.82 1.334,-1.329 2.274,-1.329 0.447,0 0.889,0.116 1.28,0.336 14.314,8.061 30.804,14.477 49.013,19.068 0.676,0.171 1.245,0.594 1.601,1.192 C 0.068,-1.376 0.17,-0.675 0,0"
             style="fill:#ffffff;fill-opacity:1;fill-rule:nonzero;stroke:none"
             id="path254" /></g><g
           id="g256"
           transform="translate(140.021,72.0777)"><path
             d="m 0,0 c -0.187,0.671 -0.625,1.229 -1.232,1.571 -0.608,0.342 -1.313,0.425 -1.983,0.239 -9.437,-2.641 -18.515,-5.821 -26.98,-9.452 -0.64,-0.274 -1.135,-0.782 -1.394,-1.429 -0.259,-0.648 -0.249,-1.357 0.025,-1.997 0.413,-0.96 1.354,-1.58 2.398,-1.58 0.354,0 0.699,0.071 1.028,0.211 8.251,3.541 17.109,6.643 26.328,9.222 C -0.424,-2.827 0.388,-1.385 0,0"
             style="fill:#ffffff;fill-opacity:1;fill-rule:nonzero;stroke:none"
             id="path258" /></g><g
           id="g260"
           transform="translate(140.0664,101.3848)"><path
             d="M 0,0 C -0.283,1.409 -1.662,2.331 -3.071,2.043 -38.312,-5.033 -69.05,-19.041 -89.623,-37.4 c -1.072,-0.958 -1.166,-2.61 -0.209,-3.683 0.494,-0.554 1.205,-0.873 1.948,-0.873 0.64,0 1.257,0.236 1.735,0.664 19.892,17.75 49.761,31.324 84.105,38.221 C -0.634,-2.788 0.283,-1.41 0,0"
             style="fill:#ffffff;fill-opacity:1;fill-rule:nonzero;stroke:none"
             id="path262" /></g><g
           id="g264"
           transform="translate(140.0528,91.7676)"><path
             d="M 0,0 C -0.152,0.68 -0.562,1.259 -1.151,1.631 -1.74,2.003 -2.438,2.123 -3.119,1.97 -30.221,-4.153 -54.354,-14.38 -72.91,-27.605 c -1.17,-0.834 -1.445,-2.467 -0.61,-3.639 0.489,-0.685 1.284,-1.094 2.126,-1.094 0.545,0 1.068,0.168 1.511,0.484 17.997,12.827 41.481,22.763 67.914,28.735 0.679,0.154 1.259,0.563 1.63,1.152 C 0.034,-1.378 0.154,-0.679 0,0"
             style="fill:#ffffff;fill-opacity:1;fill-rule:nonzero;stroke:none"
             id="path266" /></g><g
           id="g268"
           transform="translate(34.7784,83.4205)"><path
             d="m 0,0 c -0.458,0.526 -1.093,0.841 -1.789,0.889 -5.187,0.355 -10.57,0.449 -16.002,0.277 -0.696,-0.021 -1.341,-0.313 -1.819,-0.822 -0.477,-0.508 -0.728,-1.171 -0.705,-1.867 0.045,-1.417 1.19,-2.527 2.607,-2.527 l 0.083,0.002 c 5.258,0.165 10.466,0.075 15.484,-0.269 0.059,-0.003 0.118,-0.005 0.176,-0.005 1.365,0 2.507,1.067 2.6,2.429 C 0.684,-1.197 0.458,-0.525 0,0"
             style="fill:#ffffff;fill-opacity:1;fill-rule:nonzero;stroke:none"
             id="path270" /></g><g
           id="g272"
           transform="translate(54.0674,100.6871)"><path
             d="m 0,0 c -11.764,1.639 -24.235,2.263 -37.08,1.854 -0.697,-0.022 -1.342,-0.314 -1.819,-0.822 -0.477,-0.508 -0.728,-1.172 -0.705,-1.868 0.021,-0.699 0.314,-1.347 0.823,-1.823 0.506,-0.475 1.171,-0.73 1.867,-0.701 12.548,0.399 24.726,-0.208 36.193,-1.807 0.122,-0.017 0.242,-0.025 0.364,-0.025 1.292,0 2.402,0.966 2.581,2.249 C 2.421,-1.519 1.423,-0.198 0,0"
             style="fill:#ffffff;fill-opacity:1;fill-rule:nonzero;stroke:none"
             id="path274" /></g><g
           id="g276"
           transform="translate(17.0699,89.2432)"><path
             d="M 0,0 Z M 27.568,2.327 C 27.148,2.883 26.536,3.243 25.846,3.339 17.616,4.488 8.893,4.924 -0.082,4.642 -0.778,4.62 -1.424,4.328 -1.901,3.82 -2.378,3.312 -2.629,2.648 -2.607,1.952 -2.562,0.536 -1.417,-0.574 0,-0.574 l 0.083,0.001 c 8.675,0.278 17.103,-0.147 25.041,-1.255 0.123,-0.017 0.244,-0.026 0.364,-0.026 1.292,0 2.402,0.967 2.581,2.249 0.096,0.689 -0.082,1.376 -0.501,1.932"
             style="fill:#ffffff;fill-opacity:1;fill-rule:nonzero;stroke:none"
             id="path278" /></g><g
           id="g280"
           transform="translate(27.0484,74.6397)"><path
             d="m 0,0 c -0.483,0.501 -1.133,0.784 -1.83,0.797 -2.694,0.047 -5.463,0.03 -8.231,-0.057 -1.438,-0.046 -2.57,-1.252 -2.524,-2.69 0.045,-1.416 1.189,-2.525 2.687,-2.525 h 0.002 c 2.688,0.086 5.368,0.104 8.019,0.056 1.412,0 2.582,1.148 2.608,2.561 C 0.743,-1.162 0.484,-0.501 0,0"
             style="fill:#ffffff;fill-opacity:1;fill-rule:nonzero;stroke:none"
             id="path282" /></g><g
           id="g284"
           transform="translate(140.0874,120.1944)"><path
             d="M 0,0 C -0.217,1.42 -1.554,2.402 -2.974,2.183 -6.289,1.675 -9.627,1.097 -12.902,0.465 l -4.073,-0.822 c -8.54,-1.794 -16.919,-4.019 -24.906,-6.614 l -4.074,-1.367 c -5.924,-2.052 -11.685,-4.335 -17.121,-6.785 -6.56,1.511 -13.404,2.729 -20.353,3.62 l -4.073,0.485 c -5.746,0.631 -11.687,1.058 -17.661,1.268 l -4.073,0.11 c -4.551,0.085 -9.217,0.05 -13.868,-0.107 -0.697,-0.023 -1.343,-0.316 -1.819,-0.825 -0.476,-0.51 -0.725,-1.174 -0.702,-1.87 0.048,-1.42 1.268,-2.55 2.696,-2.519 18.299,0.615 35.828,-0.681 52.141,-3.857 -0.317,-0.161 -0.633,-0.324 -0.949,-0.487 -19.706,-10.182 -35.329,-23.104 -45.18,-37.368 -0.396,-0.574 -0.545,-1.267 -0.42,-1.952 0.126,-0.686 0.51,-1.282 1.083,-1.677 0.439,-0.303 0.951,-0.463 1.481,-0.463 0.856,0 1.66,0.421 2.149,1.127 19.217,27.828 60.504,49.012 110.441,56.664 C -0.761,-2.755 0.217,-1.422 0,0"
             style="fill:#ffffff;fill-opacity:1;fill-rule:nonzero;stroke:none"
             id="path286" /></g><g
           id="g288"
           transform="translate(110.732,24.0269)"><path
             d="m 0,0 c -2.704,1.873 -6.069,4.204 -12.306,4.204 -6.236,0 -9.601,-2.331 -12.305,-4.204 -2.532,-1.754 -4.532,-3.139 -8.897,-3.139 -4.365,0 -6.364,1.385 -8.895,3.139 -2.705,1.873 -6.07,4.204 -12.306,4.204 -6.236,0 -9.602,-2.331 -12.305,-4.204 -2.532,-1.754 -4.532,-3.139 -8.896,-3.139 -4.365,0 -6.365,1.385 -8.896,3.139 -1.981,1.372 -4.317,2.989 -7.876,3.757 -1.861,0.401 -3.621,-1.018 -3.621,-2.923 0,-1.409 0.986,-2.628 2.365,-2.921 2.353,-0.501 3.899,-1.573 5.722,-2.836 2.705,-1.873 6.07,-4.203 12.306,-4.203 6.235,0 9.601,2.33 12.305,4.203 2.532,1.754 4.531,3.139 8.896,3.139 4.365,0 6.364,-1.385 8.896,-3.138 2.704,-1.873 6.069,-4.204 12.305,-4.204 6.236,0 9.602,2.33 12.306,4.203 2.532,1.754 4.531,3.139 8.896,3.139 4.366,0 6.365,-1.385 8.897,-3.139 2.704,-1.872 6.07,-4.203 12.306,-4.203 6.236,0 9.602,2.331 12.306,4.203 1.823,1.263 3.37,2.335 5.724,2.836 1.378,0.293 2.364,1.512 2.364,2.921 v 0.001 c 0,1.904 -1.759,3.323 -3.621,2.922 C 22.11,2.989 19.774,1.372 17.794,0 15.262,-1.754 13.262,-3.139 8.897,-3.139 4.532,-3.139 2.532,-1.754 0,0"
             style="fill:#ffffff;fill-opacity:1;fill-rule:nonzero;stroke:none"
             id="path290" /></g><g
           id="g292"
           transform="translate(110.732,37.3941)"><path
             d="m 0,0 c -2.704,1.873 -6.069,4.204 -12.306,4.204 -6.236,0 -9.601,-2.331 -12.305,-4.204 -2.532,-1.754 -4.532,-3.139 -8.897,-3.139 -4.365,0 -6.364,1.385 -8.895,3.138 -2.705,1.874 -6.07,4.205 -12.306,4.205 -6.236,0 -9.601,-2.331 -12.305,-4.204 -2.532,-1.754 -4.532,-3.139 -8.896,-3.139 -4.365,0 -6.365,1.385 -8.896,3.138 -1.982,1.373 -4.317,2.99 -7.876,3.758 -1.861,0.401 -3.621,-1.018 -3.621,-2.923 0,-1.409 0.986,-2.628 2.365,-2.921 2.353,-0.501 3.899,-1.573 5.722,-2.836 2.705,-1.873 6.07,-4.203 12.306,-4.203 6.235,0 9.601,2.33 12.305,4.203 2.532,1.754 4.531,3.139 8.896,3.139 4.365,0 6.365,-1.385 8.896,-3.139 2.704,-1.872 6.069,-4.203 12.305,-4.203 6.236,0 9.602,2.33 12.306,4.203 2.531,1.754 4.531,3.139 8.896,3.139 4.366,0 6.366,-1.385 8.897,-3.139 2.704,-1.872 6.07,-4.203 12.306,-4.203 6.236,0 9.602,2.331 12.306,4.203 1.823,1.263 3.37,2.335 5.724,2.836 1.378,0.293 2.364,1.512 2.364,2.921 0,1.905 -1.759,3.324 -3.621,2.923 C 22.11,2.989 19.774,1.372 17.794,0 15.262,-1.754 13.262,-3.139 8.897,-3.139 4.532,-3.139 2.532,-1.754 0,0"
             style="fill:#ffffff;fill-opacity:1;fill-rule:nonzero;stroke:none"
             id="path294" /></g><g
           id="g296"
           transform="translate(110.732,50.7613)"><path
             d="m 0,0 c -2.704,1.873 -6.069,4.204 -12.306,4.204 -6.236,0 -9.601,-2.331 -12.305,-4.204 -2.532,-1.754 -4.532,-3.139 -8.897,-3.139 -4.365,0 -6.364,1.385 -8.895,3.139 -2.705,1.873 -6.07,4.204 -12.306,4.204 -6.236,0 -9.601,-2.331 -12.305,-4.204 -2.532,-1.754 -4.532,-3.139 -8.896,-3.139 -4.365,0 -6.365,1.385 -8.896,3.139 -1.982,1.372 -4.317,2.989 -7.876,3.757 -1.861,0.401 -3.621,-1.018 -3.621,-2.923 0,-1.409 0.986,-2.628 2.365,-2.921 2.353,-0.501 3.899,-1.573 5.722,-2.836 2.705,-1.873 6.07,-4.203 12.306,-4.203 6.235,0 9.6,2.33 12.305,4.203 2.532,1.754 4.531,3.139 8.896,3.139 4.365,0 6.364,-1.385 8.896,-3.138 2.705,-1.874 6.07,-4.204 12.305,-4.204 6.236,0 9.602,2.33 12.306,4.203 2.532,1.754 4.531,3.139 8.896,3.139 4.366,0 6.366,-1.385 8.897,-3.139 2.704,-1.873 6.07,-4.203 12.306,-4.203 6.236,0 9.602,2.33 12.306,4.203 1.823,1.263 3.37,2.335 5.724,2.836 1.378,0.293 2.364,1.512 2.364,2.921 v 0.001 c 0,1.904 -1.759,3.323 -3.621,2.922 C 22.11,2.989 19.774,1.372 17.794,0 15.262,-1.754 13.263,-3.139 8.897,-3.139 4.531,-3.139 2.532,-1.754 0,0"
             style="fill:#ffffff;fill-opacity:1;fill-rule:nonzero;stroke:none"
             id="path298" /></g></g></g></g></svg>
