<?xml version="1.0" encoding="UTF-8" standalone="no"?>
<svg
   xmlns:dc="http://purl.org/dc/elements/1.1/"
   xmlns:cc="http://creativecommons.org/ns#"
   xmlns:rdf="http://www.w3.org/1999/02/22-rdf-syntax-ns#"
   xmlns:svg="http://www.w3.org/2000/svg"
   xmlns="http://www.w3.org/2000/svg"
   xmlns:sodipodi="http://sodipodi.sourceforge.net/DTD/sodipodi-0.dtd"
   xmlns:inkscape="http://www.inkscape.org/namespaces/inkscape"
   version="1.1"
   id="svg2"
   xml:space="preserve"
   width="209.26534"
   height="345.40668"
   style="background-color:#fff"
   viewBox="0 0 209.26534 345.40668"
   sodipodi:docname="Logo PAPI-CMJN.ai"><metadata
     id="metadata8"><rdf:RDF><cc:Work
         rdf:about=""><dc:format>image/svg+xml</dc:format><dc:type
           rdf:resource="http://purl.org/dc/dcmitype/StillImage" /></cc:Work></rdf:RDF></metadata><defs
     id="defs6"><clipPath
       clipPathUnits="userSpaceOnUse"
       id="clipPath18"><path
         d="M 0,259.055 H 156.949 V 0 H 0 Z"
         id="path16" /></clipPath></defs><sodipodi:namedview
     pagecolor="#ffffff"
     bordercolor="#666666"
     borderopacity="1"
     objecttolerance="10"
     gridtolerance="10"
     guidetolerance="10"
     inkscape:pageopacity="0"
     inkscape:pageshadow="2"
     inkscape:window-width="640"
     inkscape:window-height="480"
     id="namedview4" /><g
     id="g10"
     inkscape:groupmode="layer"
     inkscape:label="Logo PAPI-CMJN"
     transform="matrix(1.3333333,0,0,-1.3333333,0,345.40667)"><g
       id="g12"><g
         id="g14"
         clip-path="url(#clipPath18)"><g
           id="g20"
           transform="translate(34.0117,106.9123)"><path
             d="m 0,0 c 4.434,0 6.949,2.875 6.949,7.309 0,4.373 -2.515,7.188 -6.828,7.188 h -6.41 L -6.289,0 Z m -14.137,14.497 h -3.894 v 6.649 H 1.438 c 7.968,0 13.539,-5.571 13.539,-13.837 0,-8.268 -5.571,-14.019 -13.539,-14.019 h -7.727 v -14.677 h -7.848 z"
             style="fill:#00415e;fill-opacity:1;fill-rule:nonzero;stroke:none"
             id="path22" /></g><g
           id="g24"
           transform="translate(72.3564,102.8987)"><path
             d="M 0,0 -3.654,10.663 C -4.433,13 -5.332,17.014 -5.332,17.014 h -0.12 c 0,0 -0.899,-4.014 -1.677,-6.351 L -10.783,0 Z m -24.921,-10.724 h 0.959 c 1.018,0 1.497,0.241 1.857,1.319 L -9.466,25.16 h 8.207 L 11.322,-9.405 c 0.36,-1.078 0.84,-1.319 1.857,-1.319 h 0.959 v -6.649 H 9.465 c -2.995,0 -4.073,0.779 -5.032,3.475 L 1.797,-6.47 h -14.378 l -2.635,-7.428 c -0.959,-2.696 -1.977,-3.475 -4.972,-3.475 h -4.733 z"
             style="fill:#00415e;fill-opacity:1;fill-rule:nonzero;stroke:none"
             id="path26" /></g><g
           id="g28"
           transform="translate(107.2271,106.9123)"><path
             d="m 0,0 c 4.432,0 6.949,2.875 6.949,7.309 0,4.373 -2.517,7.188 -6.83,7.188 h -6.41 V 0 Z m -14.139,14.497 h -3.894 v 6.649 h 19.47 c 7.967,0 13.54,-5.571 13.54,-13.837 0,-8.268 -5.573,-14.019 -13.54,-14.019 h -7.728 v -14.677 h -7.848 z"
             style="fill:#00415e;fill-opacity:1;fill-rule:nonzero;stroke:none"
             id="path30" /></g><g
           id="g32"
           transform="translate(125.6821,92.175)"><path
             d="M 0,0 H 4.252 V 29.234 H 0 v 6.65 h 15.934 v -6.65 H 11.682 V 0 h 4.252 V -6.649 H 0 Z"
             style="fill:#00415e;fill-opacity:1;fill-rule:nonzero;stroke:none"
             id="path34" /></g><g
           id="g36"
           transform="translate(24.7139,63.7649)"><path
             d="m 0,0 c 3.097,0 5.074,1.828 5.074,5.268 0,3.397 -2.02,5.224 -5.074,5.224 H -2.278 V 0 Z M -5.052,12.879 H 0.15 c 4.708,0 7.784,-2.795 7.784,-7.611 0,-4.816 -3.076,-7.654 -7.784,-7.654 h -5.202 z"
             style="fill:#0098ad;fill-opacity:1;fill-rule:nonzero;stroke:none"
             id="path38" /></g><g
           id="g40"
           transform="translate(42.0264,68.216)"><path
             d="M 0,0 C -0.043,1.483 -0.968,2.278 -2.171,2.278 -3.569,2.278 -4.536,1.419 -4.794,0 Z m -2.106,4.386 c 3.16,0 4.858,-2.301 4.858,-5.203 0,-0.323 -0.064,-1.054 -0.064,-1.054 H -4.88 c 0.172,-1.913 1.655,-2.902 3.289,-2.902 1.763,0 3.16,1.204 3.16,1.204 l 1.054,-1.956 c 0,0 -1.677,-1.57 -4.407,-1.57 -3.634,0 -5.891,2.622 -5.891,5.741 0,3.375 2.3,5.74 5.569,5.74"
             style="fill:#0098ad;fill-opacity:1;fill-rule:nonzero;stroke:none"
             id="path42" /></g><g
           id="g44"
           transform="translate(46.8887,76.6438)"><path
             d="m 0,0 h 2.709 v -11.438 c 0,-1.204 0.408,-1.505 1.119,-1.505 0.215,0 0.408,0.021 0.408,0.021 v -2.386 c 0,0 -0.408,-0.064 -0.86,-0.064 -1.505,0 -3.376,0.387 -3.376,3.525 z"
             style="fill:#0098ad;fill-opacity:1;fill-rule:nonzero;stroke:none"
             id="path46" /></g><g
           id="g48"
           transform="translate(53.5566,70.0002)"><path
             d="m 0,0 h -1.42 v 2.172 h 1.484 v 3.16 H 2.73 V 2.172 H 5.224 V 0 H 2.73 v -4.257 c 0,-1.806 1.418,-2.064 2.171,-2.064 0.301,0 0.495,0.043 0.495,0.043 v -2.386 c 0,0 -0.323,-0.065 -0.839,-0.065 C 3.031,-8.729 0,-8.277 0,-4.601 Z"
             style="fill:#0098ad;fill-opacity:1;fill-rule:nonzero;stroke:none"
             id="path50" /></g><g
           id="g52"
           transform="translate(64.6738,63.2492)"><path
             d="M 0,0 C 1.44,0 2.473,1.548 2.473,2.881 V 3.139 H 2 C 0.602,3.139 -1.655,2.945 -1.655,1.419 -1.655,0.688 -1.117,0 0,0 m 2.086,5.01 h 0.365 v 0.15 c 0,1.441 -0.902,1.935 -2.107,1.935 -1.57,0 -3.01,-1.054 -3.01,-1.054 l -1.031,1.957 c 0,0 1.697,1.355 4.299,1.355 2.88,0 4.558,-1.591 4.558,-4.365 V -1.87 H 2.645 v 0.902 c 0,0.431 0.043,0.775 0.043,0.775 H 2.645 c 0.021,0 -0.838,-1.935 -3.332,-1.935 -1.958,0 -3.72,1.225 -3.72,3.418 0,3.483 4.708,3.72 6.493,3.72"
             style="fill:#0098ad;fill-opacity:1;fill-rule:nonzero;stroke:none"
             id="path54" /></g><g
           id="g56"
           transform="translate(82.6313,63.4211)"><path
             d="M 0,0 C 1.42,0 2.752,1.032 2.752,3.462 2.752,5.16 1.85,6.837 0.021,6.837 -1.482,6.837 -2.731,5.611 -2.731,3.44 -2.731,1.355 -1.611,0 0,0 m -0.516,9.181 c 2.409,0 3.161,-1.398 3.161,-1.398 h 0.043 c 0,0 -0.022,0.28 -0.022,0.623 v 4.817 h 2.73 V -2.042 h -2.58 v 0.902 c 0,0.41 0.043,0.71 0.043,0.71 H 2.816 c 0,0 -0.923,-1.87 -3.439,-1.87 -2.967,0 -4.86,2.343 -4.86,5.74 0,3.483 2.065,5.741 4.967,5.741"
             style="fill:#0098ad;fill-opacity:1;fill-rule:nonzero;stroke:none"
             id="path58" /></g><g
           id="g60"
           transform="translate(97.9438,68.216)"><path
             d="M 0,0 C -0.043,1.483 -0.967,2.278 -2.17,2.278 -3.568,2.278 -4.535,1.419 -4.793,0 Z m -2.105,4.386 c 3.16,0 4.857,-2.301 4.857,-5.203 0,-0.323 -0.064,-1.054 -0.064,-1.054 h -7.567 c 0.172,-1.913 1.654,-2.902 3.289,-2.902 1.762,0 3.16,1.204 3.16,1.204 l 1.053,-1.956 c 0,0 -1.676,-1.57 -4.406,-1.57 -3.635,0 -5.891,2.622 -5.891,5.741 0,3.375 2.299,5.74 5.569,5.74"
             style="fill:#0098ad;fill-opacity:1;fill-rule:nonzero;stroke:none"
             id="path62" /></g><g
           id="g64"
           transform="translate(108.0317,76.6438)"><path
             d="m 0,0 h 2.709 v -11.438 c 0,-1.204 0.408,-1.505 1.119,-1.505 0.215,0 0.408,0.021 0.408,0.021 v -2.386 c 0,0 -0.408,-0.064 -0.861,-0.064 -1.504,0 -3.375,0.387 -3.375,3.525 z"
             style="fill:#0098ad;fill-opacity:1;fill-rule:nonzero;stroke:none"
             id="path66" /></g><g
           id="g68"
           transform="translate(114.7427,76.9016)"><path
             d="M 0,0 H 2.516 L 0.924,-4.708 H -1.01 Z"
             style="fill:#0098ad;fill-opacity:1;fill-rule:nonzero;stroke:none"
             id="path70" /></g><g
           id="g72"
           transform="translate(124.5903,73.9993)"><path
             d="M 0,0 C 0,0 -0.344,-1.505 -0.645,-2.365 L -1.998,-6.45 H 2 L 0.645,-2.365 C 0.365,-1.505 0.043,0 0.043,0 Z M 2.688,-8.707 H -2.666 L -3.955,-12.62 H -6.814 L -1.439,2.645 H 1.463 L 6.838,-12.62 H 3.979 Z"
             style="fill:#0098ad;fill-opacity:1;fill-rule:nonzero;stroke:none"
             id="path74" /></g><g
           id="g76"
           transform="translate(136.4419,63.2492)"><path
             d="M 0,0 C 1.439,0 2.471,1.548 2.471,2.881 V 3.139 H 1.998 C 0.602,3.139 -1.656,2.945 -1.656,1.419 -1.656,0.688 -1.119,0 0,0 m 2.084,5.01 h 0.365 v 0.15 c 0,1.441 -0.902,1.935 -2.105,1.935 -1.571,0 -3.01,-1.054 -3.01,-1.054 l -1.033,1.957 c 0,0 1.699,1.355 4.301,1.355 2.88,0 4.556,-1.591 4.556,-4.365 V -1.87 H 2.645 v 0.902 c 0,0.431 0.043,0.775 0.043,0.775 H 2.645 c 0.021,0 -0.84,-1.935 -3.334,-1.935 -1.956,0 -3.719,1.225 -3.719,3.418 0,3.483 4.709,3.72 6.492,3.72"
             style="fill:#0098ad;fill-opacity:1;fill-rule:nonzero;stroke:none"
             id="path78" /></g><g
           id="g80"
           transform="translate(141.5981,233.3542)"><path
             d="m 0,0 c -0.122,0.688 -0.505,1.287 -1.078,1.687 -0.571,0.399 -1.266,0.551 -1.944,0.428 -21.686,-3.83 -41.558,-10.097 -59.066,-18.627 -17.445,-8.5 -31.606,-18.786 -42.091,-30.574 -0.464,-0.52 -0.697,-1.19 -0.655,-1.886 0.04,-0.695 0.349,-1.334 0.869,-1.797 0.479,-0.425 1.093,-0.66 1.734,-0.66 0.744,0 1.454,0.32 1.949,0.875 20.249,22.765 56.03,40.089 98.167,47.532 0.685,0.121 1.284,0.501 1.683,1.073 C -0.032,-1.378 0.121,-0.686 0,0"
             style="fill:#00415e;fill-opacity:1;fill-rule:nonzero;stroke:none"
             id="path82" /></g><g
           id="g84"
           transform="translate(141.5581,204.4963)"><path
             d="M 0,0 C -0.17,0.676 -0.594,1.245 -1.192,1.603 -1.791,1.96 -2.494,2.062 -3.167,1.893 -21.824,-2.812 -38.746,-9.4 -53.465,-17.689 c -0.607,-0.341 -1.045,-0.899 -1.232,-1.571 -0.188,-0.671 -0.103,-1.375 0.24,-1.982 0.461,-0.819 1.333,-1.329 2.273,-1.329 0.447,0 0.888,0.117 1.28,0.336 14.314,8.061 30.803,14.477 49.013,19.068 0.676,0.171 1.245,0.595 1.602,1.192 C 0.067,-1.376 0.17,-0.675 0,0"
             style="fill:#00415e;fill-opacity:1;fill-rule:nonzero;stroke:none"
             id="path86" /></g><g
           id="g88"
           transform="translate(141.5405,194.5735)"><path
             d="m 0,0 c -0.187,0.671 -0.625,1.229 -1.232,1.571 -0.607,0.342 -1.313,0.425 -1.983,0.239 -9.437,-2.64 -18.514,-5.82 -26.979,-9.452 -0.641,-0.274 -1.136,-0.782 -1.395,-1.429 -0.258,-0.647 -0.249,-1.356 0.026,-1.997 0.413,-0.96 1.354,-1.58 2.398,-1.58 0.353,0 0.699,0.071 1.028,0.212 8.25,3.54 17.109,6.643 26.327,9.221 C -0.424,-2.827 0.389,-1.384 0,0"
             style="fill:#00415e;fill-opacity:1;fill-rule:nonzero;stroke:none"
             id="path90" /></g><g
           id="g92"
           transform="translate(141.5864,223.8811)"><path
             d="M 0,0 C -0.283,1.409 -1.662,2.331 -3.071,2.043 -38.312,-5.033 -69.05,-19.041 -89.623,-37.4 c -1.072,-0.958 -1.166,-2.61 -0.209,-3.683 0.494,-0.554 1.205,-0.873 1.948,-0.873 0.64,0 1.257,0.236 1.735,0.663 19.892,17.751 49.761,31.325 84.105,38.222 C -0.635,-2.788 0.282,-1.41 0,0"
             style="fill:#00415e;fill-opacity:1;fill-rule:nonzero;stroke:none"
             id="path94" /></g><g
           id="g96"
           transform="translate(141.5728,214.2639)"><path
             d="M 0,0 C -0.152,0.68 -0.562,1.259 -1.151,1.631 -1.74,2.003 -2.438,2.123 -3.118,1.97 -30.222,-4.153 -54.354,-14.38 -72.91,-27.605 c -1.17,-0.834 -1.445,-2.466 -0.611,-3.639 0.49,-0.685 1.285,-1.094 2.127,-1.094 0.545,0 1.068,0.168 1.511,0.484 17.996,12.826 41.481,22.763 67.914,28.735 0.68,0.154 1.259,0.563 1.63,1.152 C 0.034,-1.378 0.154,-0.679 0,0"
             style="fill:#00415e;fill-opacity:1;fill-rule:nonzero;stroke:none"
             id="path98" /></g><g
           id="g100"
           transform="translate(36.2983,205.9167)"><path
             d="m 0,0 c -0.458,0.525 -1.093,0.841 -1.789,0.889 -5.187,0.355 -10.57,0.449 -16.002,0.277 -0.696,-0.022 -1.341,-0.313 -1.819,-0.822 -0.477,-0.508 -0.728,-1.171 -0.705,-1.867 0.044,-1.417 1.19,-2.527 2.607,-2.527 l 0.083,0.002 c 5.258,0.165 10.466,0.075 15.484,-0.269 0.059,-0.003 0.118,-0.005 0.176,-0.005 1.365,0 2.507,1.067 2.6,2.429 C 0.684,-1.197 0.458,-0.525 0,0"
             style="fill:#00415e;fill-opacity:1;fill-rule:nonzero;stroke:none"
             id="path102" /></g><g
           id="g104"
           transform="translate(55.5874,223.1833)"><path
             d="m 0,0 c -11.764,1.639 -24.235,2.263 -37.08,1.854 -0.697,-0.022 -1.342,-0.314 -1.819,-0.822 -0.477,-0.508 -0.728,-1.172 -0.705,-1.868 0.021,-0.699 0.314,-1.347 0.823,-1.823 0.506,-0.475 1.171,-0.731 1.867,-0.701 12.548,0.399 24.726,-0.208 36.193,-1.807 0.122,-0.017 0.242,-0.025 0.364,-0.025 1.292,0 2.402,0.966 2.581,2.249 C 2.421,-1.519 1.423,-0.198 0,0"
             style="fill:#00415e;fill-opacity:1;fill-rule:nonzero;stroke:none"
             id="path106" /></g><g
           id="g108"
           transform="translate(18.5898,211.7395)"><path
             d="M 0,0 Z M 27.568,2.327 C 27.148,2.883 26.536,3.243 25.846,3.339 17.616,4.488 8.893,4.924 -0.083,4.642 -0.778,4.62 -1.424,4.328 -1.901,3.82 -2.378,3.312 -2.629,2.648 -2.607,1.952 -2.562,0.536 -1.417,-0.574 0,-0.574 l 0.083,0.001 c 8.675,0.277 17.103,-0.147 25.041,-1.255 0.123,-0.017 0.244,-0.026 0.364,-0.026 1.292,0 2.402,0.967 2.581,2.249 0.096,0.689 -0.082,1.376 -0.501,1.932"
             style="fill:#00415e;fill-opacity:1;fill-rule:nonzero;stroke:none"
             id="path110" /></g><g
           id="g112"
           transform="translate(28.5684,197.136)"><path
             d="m 0,0 c -0.483,0.501 -1.133,0.784 -1.83,0.797 -2.694,0.047 -5.463,0.03 -8.231,-0.057 -1.438,-0.046 -2.57,-1.252 -2.524,-2.69 0.044,-1.416 1.189,-2.525 2.687,-2.525 h 0.002 c 2.688,0.086 5.368,0.104 8.019,0.055 1.412,0 2.582,1.149 2.607,2.562 C 0.743,-1.162 0.483,-0.501 0,0"
             style="fill:#00415e;fill-opacity:1;fill-rule:nonzero;stroke:none"
             id="path114" /></g><g
           id="g116"
           transform="translate(141.6079,242.6906)"><path
             d="M 0,0 C -0.218,1.419 -1.555,2.402 -2.974,2.183 -6.289,1.675 -9.628,1.097 -12.902,0.464 l -4.074,-0.821 c -8.54,-1.794 -16.919,-4.019 -24.906,-6.614 l -4.074,-1.367 c -5.924,-2.052 -11.684,-4.335 -17.121,-6.786 -6.559,1.512 -13.404,2.729 -20.352,3.621 l -4.074,0.485 c -5.746,0.631 -11.686,1.058 -17.661,1.268 l -4.073,0.11 c -4.551,0.085 -9.216,0.05 -13.868,-0.107 -0.697,-0.023 -1.343,-0.316 -1.818,-0.826 -0.476,-0.509 -0.725,-1.173 -0.702,-1.869 0.048,-1.42 1.267,-2.551 2.695,-2.519 18.299,0.615 35.828,-0.681 52.141,-3.857 -0.317,-0.161 -0.632,-0.324 -0.948,-0.487 -19.707,-10.182 -35.33,-23.104 -45.18,-37.369 -0.397,-0.573 -0.546,-1.266 -0.42,-1.951 0.125,-0.686 0.509,-1.281 1.083,-1.677 0.439,-0.302 0.95,-0.463 1.48,-0.463 0.857,0 1.66,0.421 2.149,1.126 19.218,27.829 60.505,49.013 110.441,56.665 C -0.762,-2.756 0.217,-1.422 0,0"
             style="fill:#00415e;fill-opacity:1;fill-rule:nonzero;stroke:none"
             id="path118" /></g><g
           id="g120"
           transform="translate(112.2524,146.5227)"><path
             d="m 0,0 c -2.705,1.873 -6.069,4.204 -12.307,4.204 -6.236,0 -9.6,-2.331 -12.305,-4.204 -2.532,-1.753 -4.532,-3.138 -8.896,-3.138 -4.365,0 -6.365,1.385 -8.896,3.138 -2.704,1.873 -6.07,4.204 -12.305,4.204 -6.236,0 -9.602,-2.331 -12.306,-4.204 -2.531,-1.753 -4.531,-3.138 -8.896,-3.138 -4.365,0 -6.364,1.385 -8.896,3.138 -1.981,1.372 -4.317,2.99 -7.875,3.757 -1.862,0.402 -3.622,-1.017 -3.622,-2.922 0,-1.41 0.986,-2.628 2.365,-2.922 2.353,-0.501 3.9,-1.572 5.723,-2.835 2.704,-1.873 6.07,-4.204 12.305,-4.204 6.236,0 9.601,2.331 12.306,4.204 2.531,1.754 4.531,3.139 8.896,3.139 4.364,0 6.364,-1.385 8.896,-3.139 2.704,-1.873 6.069,-4.204 12.305,-4.204 6.236,0 9.601,2.331 12.305,4.204 2.532,1.754 4.531,3.139 8.896,3.139 4.366,0 6.366,-1.385 8.898,-3.139 2.704,-1.873 6.069,-4.204 12.305,-4.204 6.237,0 9.602,2.331 12.306,4.204 1.823,1.263 3.371,2.334 5.724,2.835 1.379,0.294 2.365,1.512 2.365,2.922 0,1.905 -1.76,3.324 -3.622,2.922 C 22.11,2.99 19.774,1.372 17.793,0 15.262,-1.753 13.262,-3.138 8.896,-3.138 4.531,-3.138 2.531,-1.753 0,0"
             style="fill:#0098ad;fill-opacity:1;fill-rule:nonzero;stroke:none"
             id="path122" /></g><g
           id="g124"
           transform="translate(112.2524,159.8899)"><path
             d="m 0,0 c -2.705,1.873 -6.069,4.204 -12.307,4.204 -6.235,0 -9.6,-2.331 -12.305,-4.204 -2.532,-1.753 -4.532,-3.138 -8.896,-3.138 -4.365,0 -6.365,1.385 -8.896,3.138 -2.704,1.873 -6.07,4.204 -12.305,4.204 -6.236,0 -9.602,-2.331 -12.306,-4.204 -2.532,-1.753 -4.531,-3.138 -8.896,-3.138 -4.365,0 -6.364,1.385 -8.896,3.138 -1.981,1.372 -4.317,2.99 -7.875,3.757 -1.862,0.402 -3.622,-1.017 -3.622,-2.923 0,-1.409 0.987,-2.627 2.365,-2.921 2.353,-0.501 3.9,-1.573 5.723,-2.835 2.704,-1.873 6.07,-4.204 12.305,-4.204 6.236,0 9.601,2.331 12.306,4.204 2.531,1.754 4.531,3.138 8.896,3.138 4.364,0 6.364,-1.384 8.896,-3.138 2.704,-1.873 6.069,-4.204 12.305,-4.204 6.236,0 9.601,2.331 12.305,4.204 2.532,1.754 4.531,3.138 8.896,3.138 4.367,0 6.366,-1.384 8.898,-3.138 2.704,-1.873 6.069,-4.204 12.305,-4.204 6.237,0 9.602,2.331 12.306,4.204 1.823,1.262 3.37,2.334 5.724,2.835 1.379,0.294 2.365,1.512 2.365,2.922 0,1.905 -1.76,3.324 -3.622,2.922 C 22.11,2.99 19.774,1.372 17.793,0 15.262,-1.753 13.262,-3.138 8.896,-3.138 4.531,-3.138 2.531,-1.753 0,0"
             style="fill:#0098ad;fill-opacity:1;fill-rule:nonzero;stroke:none"
             id="path126" /></g><g
           id="g128"
           transform="translate(112.2524,173.257)"><path
             d="m 0,0 c -2.705,1.873 -6.069,4.204 -12.307,4.204 -6.235,0 -9.6,-2.331 -12.305,-4.204 -2.532,-1.753 -4.532,-3.139 -8.896,-3.139 -4.365,0 -6.365,1.386 -8.896,3.139 -2.704,1.873 -6.07,4.204 -12.305,4.204 -6.236,0 -9.602,-2.331 -12.306,-4.204 -2.531,-1.753 -4.531,-3.139 -8.896,-3.139 -4.365,0 -6.364,1.386 -8.896,3.139 -1.981,1.372 -4.317,2.99 -7.875,3.757 -1.862,0.402 -3.622,-1.017 -3.622,-2.922 0,-1.41 0.987,-2.628 2.365,-2.922 2.353,-0.501 3.9,-1.572 5.723,-2.835 2.705,-1.873 6.07,-4.204 12.305,-4.204 6.236,0 9.601,2.331 12.306,4.204 2.531,1.754 4.531,3.138 8.896,3.138 4.364,0 6.364,-1.384 8.896,-3.138 2.704,-1.873 6.069,-4.204 12.305,-4.204 6.236,0 9.601,2.331 12.306,4.204 2.531,1.754 4.53,3.138 8.895,3.138 4.367,0 6.366,-1.384 8.898,-3.138 2.704,-1.873 6.069,-4.204 12.305,-4.204 6.237,0 9.602,2.331 12.306,4.204 1.823,1.262 3.37,2.334 5.724,2.835 1.379,0.294 2.365,1.512 2.365,2.922 0,1.905 -1.76,3.324 -3.622,2.922 C 22.11,2.99 19.774,1.372 17.793,0 15.262,-1.753 13.262,-3.139 8.896,-3.139 4.531,-3.139 2.531,-1.753 0,0"
             style="fill:#0098ad;fill-opacity:1;fill-rule:nonzero;stroke:none"
             id="path130" /></g><g
           id="g132"
           transform="translate(22.7998,48.635)"><path
             d="M 0,0 C 1.368,0 2.265,0.731 2.265,1.816 V 1.84 c 0,1.18 -0.885,1.793 -2.218,1.793 H -2.04 V 0 Z m -2.973,4.493 h 3.091 c 1.863,0 3.09,-0.99 3.09,-2.618 V 1.852 C 3.208,0.07 1.722,-0.85 -0.036,-0.85 H -2.04 v -2.913 h -0.933 z"
             style="fill:#00415e;fill-opacity:1;fill-rule:nonzero;stroke:none"
             id="path134" /></g><g
           id="g136"
           transform="translate(27.4141,50.9699)"><path
             d="m 0,0 h 0.908 v -1.592 c 0.449,1.014 1.334,1.745 2.489,1.698 v -0.979 h -0.07 c -1.333,0 -2.419,-0.955 -2.419,-2.795 v -2.43 H 0 Z"
             style="fill:#00415e;fill-opacity:1;fill-rule:nonzero;stroke:none"
             id="path138" /></g><g
           id="g140"
           transform="translate(36.8408,47.8918)"><path
             d="m 0,0 v 0.023 c 0,1.31 -0.979,2.383 -2.265,2.383 -1.32,0 -2.228,-1.073 -2.228,-2.359 V 0.023 c 0,-1.309 0.967,-2.371 2.252,-2.371 C -0.92,-2.348 0,-1.286 0,0 m -5.426,0 v 0.023 c 0,1.722 1.345,3.185 3.185,3.185 1.828,0 3.174,-1.439 3.174,-3.161 V 0.023 c 0,-1.722 -1.358,-3.184 -3.198,-3.184 -1.828,0 -3.161,1.438 -3.161,3.161"
             style="fill:#00415e;fill-opacity:1;fill-rule:nonzero;stroke:none"
             id="path142" /></g><g
           id="g144"
           transform="translate(44.2041,48.2102)"><path
             d="m 0,0 v 0.023 c 0,1.25 -1.085,2.065 -2.241,2.065 -1.156,0 -2.112,-0.803 -2.112,-2.053 V 0.012 c 0,-1.227 0.979,-2.076 2.112,-2.076 C -1.085,-2.064 0,-1.227 0,0 m -5.001,-4.399 0.412,0.707 c 0.696,-0.507 1.475,-0.779 2.348,-0.779 1.345,0 2.217,0.743 2.217,2.171 v 0.719 c -0.531,-0.707 -1.274,-1.285 -2.394,-1.285 -1.463,0 -2.866,1.096 -2.866,2.854 v 0.024 c 0,1.781 1.415,2.878 2.866,2.878 1.144,0 1.888,-0.567 2.382,-1.227 V 2.76 h 0.908 v -5.036 c 0,-0.944 -0.282,-1.663 -0.777,-2.16 -0.543,-0.542 -1.358,-0.813 -2.324,-0.813 -1.014,0 -1.958,0.283 -2.772,0.85"
             style="fill:#00415e;fill-opacity:1;fill-rule:nonzero;stroke:none"
             id="path146" /></g><g
           id="g148"
           transform="translate(46.9668,50.9699)"><path
             d="m 0,0 h 0.908 v -1.592 c 0.448,1.014 1.333,1.745 2.488,1.698 v -0.979 h -0.07 c -1.332,0 -2.418,-0.955 -2.418,-2.795 v -2.43 H 0 Z"
             style="fill:#00415e;fill-opacity:1;fill-rule:nonzero;stroke:none"
             id="path150" /></g><g
           id="g152"
           transform="translate(55.332,47.1135)"><path
             d="m 0,0 v 0.565 c -0.449,0.13 -1.039,0.26 -1.781,0.26 -1.133,0 -1.782,-0.495 -1.782,-1.226 v -0.024 c 0,-0.766 0.708,-1.215 1.534,-1.215 C -0.908,-1.64 0,-0.968 0,0 m -4.482,-0.473 v 0.025 c 0,1.308 1.06,1.993 2.606,1.993 0.778,0 1.321,-0.107 1.864,-0.26 v 0.189 c 0,1.086 -0.661,1.651 -1.804,1.651 -0.721,0 -1.287,-0.177 -1.853,-0.437 l -0.27,0.744 c 0.671,0.306 1.32,0.519 2.216,0.519 0.862,0 1.534,-0.236 1.97,-0.673 C 0.672,2.854 0.884,2.265 0.884,1.485 v -3.726 h -0.896 v 0.908 c -0.425,-0.543 -1.121,-1.038 -2.194,-1.038 -1.145,0 -2.276,0.648 -2.276,1.898"
             style="fill:#00415e;fill-opacity:1;fill-rule:nonzero;stroke:none"
             id="path154" /></g><g
           id="g156"
           transform="translate(58,50.9699)"><path
             d="m 0,0 h 0.908 v -1.026 c 0.401,0.601 0.944,1.156 1.97,1.156 0.991,0 1.628,-0.531 1.958,-1.215 0.435,0.672 1.085,1.215 2.146,1.215 1.405,0 2.265,-0.943 2.265,-2.453 V -6.098 H 8.339 v 3.562 c 0,1.18 -0.59,1.841 -1.581,1.841 -0.92,0 -1.686,-0.685 -1.686,-1.888 V -6.098 H 4.176 v 3.585 c 0,1.145 -0.602,1.818 -1.57,1.818 -0.967,0 -1.698,-0.803 -1.698,-1.923 v -3.48 H 0 Z"
             style="fill:#00415e;fill-opacity:1;fill-rule:nonzero;stroke:none"
             id="path158" /></g><g
           id="g160"
           transform="translate(69.0801,50.9699)"><path
             d="m 0,0 h 0.908 v -1.026 c 0.401,0.601 0.944,1.156 1.97,1.156 0.991,0 1.628,-0.531 1.958,-1.215 0.435,0.672 1.085,1.215 2.146,1.215 1.405,0 2.265,-0.943 2.265,-2.453 V -6.098 H 8.339 v 3.562 c 0,1.18 -0.59,1.841 -1.581,1.841 -0.92,0 -1.686,-0.685 -1.686,-1.888 V -6.098 H 4.176 v 3.585 c 0,1.145 -0.602,1.818 -1.57,1.818 -0.967,0 -1.698,-0.803 -1.698,-1.923 v -3.48 H 0 Z"
             style="fill:#00415e;fill-opacity:1;fill-rule:nonzero;stroke:none"
             id="path162" /></g><g
           id="g164"
           transform="translate(84.6313,48.2805)"><path
             d="M 0,0 C -0.107,1.109 -0.744,2.053 -1.947,2.053 -2.996,2.053 -3.799,1.18 -3.928,0 Z m -1.781,-2.76 c 0.837,0 1.427,0.342 1.922,0.862 L 0.707,-2.406 C 0.094,-3.09 -0.649,-3.55 -1.805,-3.55 c -1.675,0 -3.044,1.285 -3.044,3.185 0,1.769 1.24,3.184 2.925,3.184 1.805,0 2.844,-1.439 2.844,-3.231 0,-0.083 0,-0.178 -0.012,-0.319 h -4.836 c 0.129,-1.286 1.073,-2.029 2.147,-2.029"
             style="fill:#00415e;fill-opacity:1;fill-rule:nonzero;stroke:none"
             id="path166" /></g><g
           id="g168"
           transform="translate(95.3315,47.9153)"><path
             d="m 0,0 v 0.023 c 0,1.404 -1.073,2.348 -2.205,2.348 -1.18,0 -2.147,-0.873 -2.147,-2.348 V 0 c 0,-1.439 0.991,-2.359 2.147,-2.359 C -1.073,-2.359 0,-1.403 0,0 m -5.284,-0.012 v 0.024 c 0,1.993 1.451,3.173 2.914,3.173 1.132,0 1.863,-0.614 2.335,-1.298 v 3.68 h 0.908 v -8.61 h -0.908 v 1.227 C -0.53,-2.548 -1.25,-3.173 -2.37,-3.173 c -1.463,0 -2.914,1.156 -2.914,3.161"
             style="fill:#00415e;fill-opacity:1;fill-rule:nonzero;stroke:none"
             id="path170" /></g><g
           id="g172"
           transform="translate(97.6821,50.8635)"><path
             d="M 0,0 C 0.59,0.213 0.838,0.52 0.79,1.026 H 0.365 V 2.265 H 1.451 V 1.203 c 0,-0.955 -0.413,-1.415 -1.309,-1.615 z"
             style="fill:#00415e;fill-opacity:1;fill-rule:nonzero;stroke:none"
             id="path174" /></g><g
           id="g176"
           transform="translate(105.1724,47.8918)"><path
             d="M 0,0 -1.875,4.211 -3.763,0 Z m -2.3,5.296 h 0.873 L 2.336,-3.02 H 1.333 L 0.366,-0.838 H -4.128 L -5.107,-3.02 h -0.955 z"
             style="fill:#00415e;fill-opacity:1;fill-rule:nonzero;stroke:none"
             id="path178" /></g><g
           id="g180"
           transform="translate(108.1724,47.8918)"><path
             d="m 0,0 v 0.023 c 0,1.722 1.345,3.185 3.126,3.185 1.156,0 1.875,-0.483 2.441,-1.085 L 4.966,1.486 C 4.482,1.993 3.939,2.406 3.114,2.406 1.876,2.406 0.932,1.356 0.932,0.047 V 0.023 c 0,-1.321 0.967,-2.371 2.241,-2.371 0.778,0 1.38,0.39 1.864,0.909 L 5.614,-1.981 C 5.001,-2.666 4.27,-3.161 3.126,-3.161 1.345,-3.161 0,-1.711 0,0"
             style="fill:#00415e;fill-opacity:1;fill-rule:nonzero;stroke:none"
             id="path182" /></g><g
           id="g184"
           transform="translate(115.4644,46.4875)"><path
             d="M 0,0 V 3.681 H -0.85 V 4.482 H 0 v 1.84 H 0.908 V 4.482 H 2.843 V 3.681 H 0.908 V 0.118 c 0,-0.743 0.413,-1.014 1.027,-1.014 0.306,0 0.565,0.059 0.884,0.212 V -1.462 C 2.5,-1.627 2.158,-1.722 1.722,-1.722 0.743,-1.722 0,-1.238 0,0"
             style="fill:#00415e;fill-opacity:1;fill-rule:nonzero;stroke:none"
             id="path186" /></g><path
           d="m 119.854,50.97 h 0.908 v -6.098 h -0.908 z m -0.059,2.336 h 1.038 v -1.003 h -1.038 z"
           style="fill:#00415e;fill-opacity:1;fill-rule:nonzero;stroke:none"
           id="path188" /><g
           id="g190"
           transform="translate(127.7817,47.8918)"><path
             d="m 0,0 v 0.023 c 0,1.31 -0.979,2.383 -2.265,2.383 -1.321,0 -2.229,-1.073 -2.229,-2.359 V 0.023 c 0,-1.309 0.968,-2.371 2.253,-2.371 C -0.92,-2.348 0,-1.286 0,0 m -5.426,0 v 0.023 c 0,1.722 1.345,3.185 3.185,3.185 1.828,0 3.173,-1.439 3.173,-3.161 V 0.023 c 0,-1.722 -1.357,-3.184 -3.197,-3.184 -1.828,0 -3.161,1.438 -3.161,3.161"
             style="fill:#00415e;fill-opacity:1;fill-rule:nonzero;stroke:none"
             id="path192" /></g><g
           id="g194"
           transform="translate(130.2153,50.9699)"><path
             d="m 0,0 h 0.908 v -1.062 c 0.401,0.661 1.038,1.192 2.088,1.192 1.474,0 2.335,-0.991 2.335,-2.442 V -6.098 H 4.423 v 3.562 c 0,1.133 -0.613,1.841 -1.687,1.841 -1.049,0 -1.828,-0.768 -1.828,-1.911 V -6.098 H 0 Z"
             style="fill:#00415e;fill-opacity:1;fill-rule:nonzero;stroke:none"
             id="path196" /></g><g
           id="g198"
           transform="translate(136.8345,45.6506)"><path
             d="M 0,0 0.46,0.648 C 1.121,0.153 1.853,-0.13 2.571,-0.13 c 0.732,0 1.263,0.378 1.263,0.967 V 0.861 C 3.834,1.475 3.114,1.71 2.313,1.935 1.356,2.206 0.295,2.536 0.295,3.656 V 3.68 c 0,1.049 0.873,1.746 2.076,1.746 0.743,0 1.568,-0.26 2.194,-0.673 L 4.152,4.069 c -0.566,0.366 -1.214,0.59 -1.804,0.59 -0.72,0 -1.18,-0.378 -1.18,-0.885 V 3.751 C 1.168,3.173 1.923,2.948 2.736,2.701 3.681,2.418 4.694,2.052 4.694,0.955 V 0.932 c 0,-1.157 -0.955,-1.828 -2.17,-1.828 C 1.651,-0.896 0.685,-0.555 0,0"
             style="fill:#00415e;fill-opacity:1;fill-rule:nonzero;stroke:none"
             id="path200" /></g><g
           id="g202"
           transform="translate(24.6045,34.3274)"><path
             d="m 0,0 v 0.023 c 0,1.404 -1.073,2.348 -2.206,2.348 -1.18,0 -2.147,-0.873 -2.147,-2.348 V 0 c 0,-1.439 0.991,-2.359 2.147,-2.359 C -1.073,-2.359 0,-1.403 0,0 m -5.284,-0.012 v 0.024 c 0,1.993 1.451,3.173 2.913,3.173 1.132,0 1.864,-0.614 2.335,-1.298 v 3.68 h 0.908 v -8.61 h -0.908 v 1.227 c -0.494,-0.732 -1.215,-1.357 -2.335,-1.357 -1.462,0 -2.913,1.156 -2.913,3.161"
             style="fill:#00415e;fill-opacity:1;fill-rule:nonzero;stroke:none"
             id="path204" /></g><g
           id="g206"
           transform="translate(31.8379,34.6926)"><path
             d="M 0,0 C -0.106,1.109 -0.743,2.053 -1.946,2.053 -2.996,2.053 -3.799,1.18 -3.928,0 Z m -1.781,-2.76 c 0.838,0 1.427,0.342 1.923,0.862 L 0.707,-2.406 C 0.094,-3.09 -0.648,-3.55 -1.805,-3.55 c -1.674,0 -3.043,1.285 -3.043,3.185 0,1.769 1.239,3.184 2.925,3.184 1.805,0 2.843,-1.439 2.843,-3.231 0,-0.083 0,-0.178 -0.012,-0.319 h -4.836 c 0.129,-1.286 1.074,-2.029 2.147,-2.029"
             style="fill:#00415e;fill-opacity:1;fill-rule:nonzero;stroke:none"
             id="path208" /></g><g
           id="g210"
           transform="translate(40.7354,35.0471)"><path
             d="M 0,0 C 1.368,0 2.265,0.731 2.265,1.816 V 1.84 c 0,1.18 -0.885,1.793 -2.218,1.793 H -2.04 V 0 Z m -2.973,4.493 h 3.091 c 1.863,0 3.09,-0.99 3.09,-2.618 V 1.852 C 3.208,0.07 1.722,-0.85 -0.036,-0.85 H -2.04 v -2.913 h -0.933 z"
             style="fill:#00415e;fill-opacity:1;fill-rule:nonzero;stroke:none"
             id="path212" /></g><g
           id="g214"
           transform="translate(45.3496,37.382)"><path
             d="m 0,0 h 0.908 v -1.592 c 0.449,1.014 1.334,1.745 2.489,1.698 v -0.979 h -0.07 c -1.333,0 -2.419,-0.955 -2.419,-2.795 v -2.43 H 0 Z"
             style="fill:#00415e;fill-opacity:1;fill-rule:nonzero;stroke:none"
             id="path216" /></g><g
           id="g218"
           transform="translate(53.0078,40.0129)"><path
             d="m 0,0 0.943,-0.437 -1.344,-1.274 h -0.708 z m 1.191,-5.32 c -0.107,1.109 -0.744,2.052 -1.947,2.052 -1.049,0 -1.851,-0.873 -1.98,-2.052 z M -0.59,-8.08 c 0.837,0 1.427,0.342 1.922,0.861 L 1.898,-7.727 C 1.285,-8.41 0.542,-8.87 -0.613,-8.87 c -1.676,0 -3.044,1.285 -3.044,3.184 0,1.77 1.239,3.185 2.925,3.185 1.804,0 2.843,-1.439 2.843,-3.231 0,-0.083 0,-0.178 -0.011,-0.32 h -4.836 c 0.129,-1.285 1.072,-2.028 2.146,-2.028"
             style="fill:#00415e;fill-opacity:1;fill-rule:nonzero;stroke:none"
             id="path220" /></g><g
           id="g222"
           transform="translate(55.6758,37.382)"><path
             d="M 0,0 H 1.002 L 3.055,-5.06 5.119,0 H 6.098 L 3.443,-6.146 H 2.642 Z"
             style="fill:#00415e;fill-opacity:1;fill-rule:nonzero;stroke:none"
             id="path224" /></g><g
           id="g226"
           transform="translate(67.1777,34.6926)"><path
             d="M 0,0 C -0.105,1.109 -0.742,2.053 -1.945,2.053 -2.996,2.053 -3.798,1.18 -3.928,0 Z m -1.781,-2.76 c 0.838,0 1.427,0.342 1.924,0.862 L 0.708,-2.406 C 0.095,-3.09 -0.648,-3.55 -1.805,-3.55 c -1.674,0 -3.043,1.285 -3.043,3.185 0,1.769 1.239,3.184 2.926,3.184 1.805,0 2.842,-1.439 2.842,-3.231 0,-0.083 0,-0.178 -0.012,-0.319 h -4.836 c 0.13,-1.286 1.074,-2.029 2.147,-2.029"
             style="fill:#00415e;fill-opacity:1;fill-rule:nonzero;stroke:none"
             id="path228" /></g><g
           id="g230"
           transform="translate(69.5508,37.382)"><path
             d="m 0,0 h 0.908 v -1.062 c 0.403,0.661 1.039,1.192 2.088,1.192 1.475,0 2.336,-0.991 2.336,-2.442 V -6.098 H 4.424 v 3.562 c 0,1.133 -0.613,1.841 -1.687,1.841 -1.05,0 -1.829,-0.768 -1.829,-1.911 V -6.098 H 0 Z"
             style="fill:#00415e;fill-opacity:1;fill-rule:nonzero;stroke:none"
             id="path232" /></g><g
           id="g234"
           transform="translate(76.9971,32.8996)"><path
             d="M 0,0 V 3.681 H -0.85 V 4.482 H 0 v 1.84 H 0.908 V 4.482 H 2.843 V 3.681 H 0.908 V 0.118 c 0,-0.743 0.413,-1.014 1.027,-1.014 0.306,0 0.566,0.059 0.884,0.212 V -1.462 C 2.501,-1.627 2.158,-1.722 1.722,-1.722 0.743,-1.722 0,-1.238 0,0"
             style="fill:#00415e;fill-opacity:1;fill-rule:nonzero;stroke:none"
             id="path236" /></g><path
           d="m 81.387,37.382 h 0.908 v -6.098 h -0.908 z m -0.058,2.336 h 1.037 v -1.003 h -1.037 z"
           style="fill:#00415e;fill-opacity:1;fill-rule:nonzero;stroke:none"
           id="path238" /><g
           id="g240"
           transform="translate(89.314,34.3039)"><path
             d="m 0,0 v 0.023 c 0,1.31 -0.979,2.383 -2.265,2.383 -1.32,0 -2.228,-1.073 -2.228,-2.359 V 0.023 c 0,-1.309 0.967,-2.371 2.252,-2.371 C -0.92,-2.348 0,-1.286 0,0 m -5.426,0 v 0.023 c 0,1.722 1.345,3.185 3.185,3.185 1.828,0 3.173,-1.439 3.173,-3.161 V 0.023 c 0,-1.722 -1.357,-3.184 -3.197,-3.184 -1.828,0 -3.161,1.438 -3.161,3.161"
             style="fill:#00415e;fill-opacity:1;fill-rule:nonzero;stroke:none"
             id="path242" /></g><g
           id="g244"
           transform="translate(91.7476,37.382)"><path
             d="m 0,0 h 0.908 v -1.062 c 0.401,0.661 1.038,1.192 2.088,1.192 1.474,0 2.335,-0.991 2.335,-2.442 V -6.098 H 4.423 v 3.562 c 0,1.133 -0.613,1.841 -1.687,1.841 -1.049,0 -1.828,-0.768 -1.828,-1.911 V -6.098 H 0 Z"
             style="fill:#00415e;fill-opacity:1;fill-rule:nonzero;stroke:none"
             id="path246" /></g><g
           id="g248"
           transform="translate(24.6045,20.7395)"><path
             d="m 0,0 v 0.024 c 0,1.404 -1.073,2.347 -2.206,2.347 -1.18,0 -2.147,-0.873 -2.147,-2.347 V 0 c 0,-1.438 0.991,-2.358 2.147,-2.358 C -1.073,-2.358 0,-1.403 0,0 m -5.284,-0.012 v 0.024 c 0,1.994 1.451,3.173 2.913,3.173 1.132,0 1.864,-0.614 2.335,-1.297 v 3.679 h 0.908 v -8.61 h -0.908 v 1.227 c -0.494,-0.732 -1.215,-1.357 -2.335,-1.357 -1.462,0 -2.913,1.156 -2.913,3.161"
             style="fill:#00415e;fill-opacity:1;fill-rule:nonzero;stroke:none"
             id="path250" /></g><g
           id="g252"
           transform="translate(31.8379,21.1057)"><path
             d="M 0,0 C -0.106,1.108 -0.743,2.052 -1.946,2.052 -2.996,2.052 -3.799,1.18 -3.928,0 Z m -1.781,-2.761 c 0.838,0 1.427,0.343 1.923,0.862 l 0.565,-0.507 c -0.613,-0.685 -1.355,-1.145 -2.512,-1.145 -1.674,0 -3.043,1.286 -3.043,3.185 0,1.769 1.239,3.184 2.925,3.184 1.805,0 2.843,-1.438 2.843,-3.231 0,-0.082 0,-0.177 -0.012,-0.318 h -4.836 c 0.129,-1.287 1.074,-2.03 2.147,-2.03"
             style="fill:#00415e;fill-opacity:1;fill-rule:nonzero;stroke:none"
             id="path254" /></g><g
           id="g256"
           transform="translate(33.7041,18.4748)"><path
             d="M 0,0 0.46,0.648 C 1.12,0.153 1.852,-0.13 2.571,-0.13 c 0.731,0 1.262,0.378 1.262,0.968 v 0.023 c 0,0.614 -0.719,0.85 -1.521,1.074 C 1.356,2.206 0.295,2.536 0.295,3.657 v 0.024 c 0,1.049 0.872,1.745 2.075,1.745 0.744,0 1.569,-0.259 2.194,-0.672 L 4.151,4.069 C 3.585,4.436 2.937,4.659 2.347,4.659 1.628,4.659 1.167,4.282 1.167,3.774 V 3.751 C 1.167,3.173 1.923,2.949 2.736,2.701 3.68,2.418 4.694,2.053 4.694,0.956 V 0.933 c 0,-1.157 -0.955,-1.829 -2.17,-1.829 C 1.651,-0.896 0.685,-0.555 0,0"
             style="fill:#00415e;fill-opacity:1;fill-rule:nonzero;stroke:none"
             id="path258" /></g><path
           d="m 43.58,25.953 h 0.932 V 17.696 H 43.58 Z"
           style="fill:#00415e;fill-opacity:1;fill-rule:nonzero;stroke:none"
           id="path260" /><g
           id="g262"
           transform="translate(46.6367,23.7951)"><path
             d="m 0,0 h 0.908 v -1.062 c 0.401,0.661 1.037,1.191 2.088,1.191 1.475,0 2.335,-0.99 2.335,-2.442 V -6.099 H 4.423 v 3.563 c 0,1.132 -0.613,1.84 -1.687,1.84 -1.049,0 -1.828,-0.767 -1.828,-1.911 V -6.099 H 0 Z"
             style="fill:#00415e;fill-opacity:1;fill-rule:nonzero;stroke:none"
             id="path264" /></g><g
           id="g266"
           transform="translate(58.8115,20.716)"><path
             d="m 0,0 v 0.023 c 0,1.31 -0.979,2.383 -2.265,2.383 -1.32,0 -2.228,-1.073 -2.228,-2.358 V 0.023 c 0,-1.308 0.967,-2.371 2.252,-2.371 C -0.92,-2.348 0,-1.285 0,0 m -5.426,0 v 0.023 c 0,1.723 1.345,3.185 3.185,3.185 1.828,0 3.174,-1.438 3.174,-3.16 V 0.023 c 0,-1.721 -1.358,-3.184 -3.198,-3.184 -1.828,0 -3.161,1.439 -3.161,3.161"
             style="fill:#00415e;fill-opacity:1;fill-rule:nonzero;stroke:none"
             id="path268" /></g><g
           id="g270"
           transform="translate(61.2441,23.7951)"><path
             d="m 0,0 h 0.908 v -1.062 c 0.402,0.661 1.038,1.191 2.088,1.191 1.475,0 2.336,-0.99 2.336,-2.442 V -6.099 H 4.424 v 3.563 c 0,1.132 -0.613,1.84 -1.688,1.84 -1.049,0 -1.828,-0.767 -1.828,-1.911 V -6.099 H 0 Z"
             style="fill:#00415e;fill-opacity:1;fill-rule:nonzero;stroke:none"
             id="path272" /></g><g
           id="g274"
           transform="translate(73.3018,20.7395)"><path
             d="m 0,0 v 0.024 c 0,1.404 -1.073,2.347 -2.206,2.347 -1.18,0 -2.147,-0.873 -2.147,-2.347 V 0 c 0,-1.438 0.991,-2.358 2.147,-2.358 C -1.073,-2.358 0,-1.403 0,0 m -5.284,-0.012 v 0.024 c 0,1.994 1.451,3.173 2.913,3.173 1.132,0 1.864,-0.614 2.335,-1.297 v 3.679 h 0.908 v -8.61 h -0.908 v 1.227 c -0.494,-0.732 -1.215,-1.357 -2.335,-1.357 -1.462,0 -2.913,1.156 -2.913,3.161"
             style="fill:#00415e;fill-opacity:1;fill-rule:nonzero;stroke:none"
             id="path276" /></g><g
           id="g278"
           transform="translate(80.0874,19.9377)"><path
             d="m 0,0 v 0.566 c -0.449,0.13 -1.039,0.26 -1.782,0.26 -1.132,0 -1.78,-0.496 -1.78,-1.227 v -0.024 c 0,-0.766 0.707,-1.215 1.533,-1.215 C -0.909,-1.64 0,-0.968 0,0 m -4.483,-0.472 v 0.024 c 0,1.309 1.062,1.993 2.607,1.993 0.779,0 1.321,-0.106 1.864,-0.259 v 0.189 c 0,1.085 -0.661,1.651 -1.805,1.651 -0.72,0 -1.286,-0.177 -1.852,-0.437 L -3.94,3.433 c 0.672,0.306 1.321,0.518 2.218,0.518 0.86,0 1.533,-0.235 1.969,-0.672 C 0.673,2.854 0.884,2.265 0.884,1.486 v -3.727 h -0.896 v 0.908 c -0.425,-0.543 -1.12,-1.038 -2.195,-1.038 -1.144,0 -2.276,0.648 -2.276,1.899"
             style="fill:#00415e;fill-opacity:1;fill-rule:nonzero;stroke:none"
             id="path280" /></g><g
           id="g282"
           transform="translate(83.0151,19.3127)"><path
             d="M 0,0 V 3.68 H -0.85 V 4.482 H 0 v 1.84 H 0.908 V 4.482 H 2.843 V 3.68 H 0.908 V 0.118 c 0,-0.743 0.413,-1.014 1.027,-1.014 0.306,0 0.566,0.058 0.884,0.211 V -1.463 C 2.501,-1.628 2.158,-1.723 1.722,-1.723 0.743,-1.723 0,-1.238 0,0"
             style="fill:#00415e;fill-opacity:1;fill-rule:nonzero;stroke:none"
             id="path284" /></g><path
           d="m 87.405,23.795 h 0.908 v -6.099 h -0.908 z m -0.059,2.335 h 1.037 v -1.003 h -1.037 z"
           style="fill:#00415e;fill-opacity:1;fill-rule:nonzero;stroke:none"
           id="path286" /><g
           id="g288"
           transform="translate(95.3325,20.716)"><path
             d="m 0,0 v 0.023 c 0,1.31 -0.979,2.383 -2.265,2.383 -1.321,0 -2.229,-1.073 -2.229,-2.358 V 0.023 c 0,-1.308 0.968,-2.371 2.253,-2.371 C -0.92,-2.348 0,-1.285 0,0 m -5.426,0 v 0.023 c 0,1.723 1.345,3.185 3.185,3.185 1.828,0 3.173,-1.438 3.173,-3.16 V 0.023 c 0,-1.721 -1.357,-3.184 -3.197,-3.184 -1.828,0 -3.161,1.439 -3.161,3.161"
             style="fill:#00415e;fill-opacity:1;fill-rule:nonzero;stroke:none"
             id="path290" /></g><g
           id="g292"
           transform="translate(97.7661,23.7951)"><path
             d="m 0,0 h 0.908 v -1.062 c 0.401,0.661 1.038,1.191 2.088,1.191 1.474,0 2.335,-0.99 2.335,-2.442 V -6.099 H 4.423 v 3.563 c 0,1.132 -0.613,1.84 -1.687,1.84 -1.049,0 -1.828,-0.767 -1.828,-1.911 V -6.099 H 0 Z"
             style="fill:#00415e;fill-opacity:1;fill-rule:nonzero;stroke:none"
             id="path294" /></g><g
           id="g296"
           transform="translate(104.3853,18.4748)"><path
             d="M 0,0 0.46,0.648 C 1.121,0.153 1.853,-0.13 2.571,-0.13 c 0.732,0 1.263,0.378 1.263,0.968 v 0.023 c 0,0.614 -0.72,0.85 -1.521,1.074 C 1.356,2.206 0.295,2.536 0.295,3.657 v 0.024 c 0,1.049 0.873,1.745 2.076,1.745 0.743,0 1.568,-0.259 2.194,-0.672 L 4.152,4.069 c -0.566,0.367 -1.214,0.59 -1.804,0.59 -0.72,0 -1.18,-0.377 -1.18,-0.885 V 3.751 C 1.168,3.173 1.923,2.949 2.736,2.701 3.681,2.418 4.694,2.053 4.694,0.956 V 0.933 c 0,-1.157 -0.955,-1.829 -2.17,-1.829 C 1.651,-0.896 0.685,-0.555 0,0"
             style="fill:#00415e;fill-opacity:1;fill-rule:nonzero;stroke:none"
             id="path298" /></g></g></g></g></svg>
